<svg xmlns="http://www.w3.org/2000/svg" viewBox="0 0 500 500"><g id="freepik--Earth--inject-230"><g id="freepik--World--inject-230"><path d="M119.42,214.86A129.24,129.24,0,1,0,146.06,98.08,129.26,129.26,0,0,0,119.42,214.86Z" style="fill:#6E9DF5"></path><path d="M119.42,214.86A129.24,129.24,0,1,0,146.06,98.08,129.26,129.26,0,0,0,119.42,214.86Z" style="fill:#fff;opacity:0.5"></path><g style="opacity:0.5"><path d="M193.6,63.94a3.82,3.82,0,0,0,2,1.45,7.37,7.37,0,0,0,1.41.2c.58,0,2.09-.36,2.38-.1s-.74,1.25-1.47,1.74A11.69,11.69,0,0,1,194,68.8c-2.1.39-3.15.16-4.22-.46-.36-.21-1.79-1.19-2.64-.8s-.77.74-.55,1.06a4.35,4.35,0,0,0,1.61.91,1.3,1.3,0,0,1,.66.45c.43.68-1.42,1.93-1.16,2.66.16.44.9.55,1.41.71a10,10,0,0,0,2.38.67,6.7,6.7,0,0,0,1.66-.07,26.69,26.69,0,0,1,4,.09,2.09,2.09,0,0,0,2.37-1.45c.32-.88-.46-1.13-1.49-1.18-1.39-.07-3,.06-3.45,0s-.56-.13-.34-.34c.43-.41,2.11-.36,2.43-.38l2.09-.17c1.13-.1,2.39-.08,2.93-.1a7.72,7.72,0,0,0,1-.12,6.12,6.12,0,0,0,1.58-.53c1-.61.6-1.21,1.48-1.75a7.05,7.05,0,0,1,2.28-.67,22.6,22.6,0,0,0,2.36-.59c1.5-.57,1.84-1.74,3.09-2.62a8.16,8.16,0,0,1,2.3-1.1c1.17-.36,2.71-.72,3.6-1l1.6-.55a9.13,9.13,0,0,0,1.87-.88c.39-.24.78-.57,1.15-.81a3,3,0,0,1,1.11-.44,6.21,6.21,0,0,0,3.16-1.72c1.08-1.15-.09-1.16-.22-1.53-.23-.62-.9-.78-1.67-.91-1.68-.27-3.86-.12-5.92-.25-3,.57-6,1.24-9,2-2.57.68-5.1,1.45-7.59,2.27a3.82,3.82,0,0,0,1.14.91c1,.67,3.21.1,4.81.12.72,0,3-.21,2.9.43-.13,1-2.71,1.37-3.25,1.44a2.94,2.94,0,0,0-1.3.4c-.8.54-2,1.19-2.49.6-.29-.37-.49-.83-.89-1a.84.84,0,0,0-1,.16c-.64.52-2.25,1.18-2.19.34,0-.49.28-1.12,0-1.44s-.67-.38-.86-.65a.71.71,0,0,1-.08-.18q-3.78,1.35-7.42,2.91A2.59,2.59,0,0,0,193.6,63.94Z" style="fill:#fff"></path><path d="M324.93,110.54a15.8,15.8,0,0,1,4.42-1.19c.72-.09,1.45-.14,2.18-.17.44,0,.89,0,1.33,0a7.83,7.83,0,0,0,1,.11,1,1,0,0,0,.52-1.69,1.56,1.56,0,0,0-.3-.32,1.22,1.22,0,0,0-1-.22,8.59,8.59,0,0,1-2.76-.28c-3.76-.91-7.16-.6-9.49,2.27a18.88,18.88,0,0,0-2.3,3.18c-.18.44-.37.89-.88.79-.31-.06-.49,0-.51.45a4.7,4.7,0,0,0,1.32,3,19.38,19.38,0,0,0,1.24,1.54,2.31,2.31,0,0,0,2.17.7c.47-.2.26-1.16.16-1.83,0-.27-.09-.51-.14-.76a6.53,6.53,0,0,1,.22-2.35,5.12,5.12,0,0,1,2.78-3.16Z" style="fill:#fff"></path><path d="M276.83,78.28c.2.43.33,1,.51,1.42a6.11,6.11,0,0,0,.86,1.45,13.86,13.86,0,0,1,1.12,1.59,1.71,1.71,0,0,1,.09.3c.06.38,0,.26-.14.5-.18.43,0,.78.36,1.16a11.27,11.27,0,0,1,.83,1.08c.46.6,1.52,1.16,1.92.6a5.13,5.13,0,0,0,.56-1.23,10.21,10.21,0,0,1,.82-2.1,2.68,2.68,0,0,0,.14-.29c.08-.16.54-.24,1,.22.3.31.58.69.76.88l.31.32a.68.68,0,0,1,0,.64.38.38,0,0,0,0,.25c.06.22.2.29.31.41a5.73,5.73,0,0,0,1.34,1.08,2,2,0,0,0,.62.19.64.64,0,0,0,.47-1,16.72,16.72,0,0,1-1.85-2,6,6,0,0,1-.8-1.74c-.32-1.2.47-1.14,1.07-.94a7.84,7.84,0,0,0,1.47.35,3.16,3.16,0,0,0,2.19-.42,1.51,1.51,0,0,0,.32-1.13l0-.12a2.13,2.13,0,0,0-1.72-1.23c-.78-.2-1.63-.46-2.42-.74a5,5,0,0,1-1.05-.39,2.69,2.69,0,0,0-.75-.42,3.41,3.41,0,0,0-1.53.12,2.73,2.73,0,0,1-1.73-.09c-.33-.13-.81-.51-1-.1-.24.58.31,1.38.26,2-.05.47-.5.13-.71-.33s0-1-.21-1.38-.44-.34-.56-.19-.28.78-.73.18c-.26-.34-.3-.69-.64-.93-.56-.4-2.12-.42-1.95.89A3.3,3.3,0,0,0,276.83,78.28Z" style="fill:#fff"></path><path d="M258.23,134.26c-.28-1.17-1.54-2.17-.83-3.57.23-.46,1-.69,1-1.3,0-.33-.29-.5-.45-.7s-.83-1.38-.6-1.77-2.17-1.3-2.22-.39c-.08,1.34-2.21,1.07-1.56,2.17l.08.13a14.19,14.19,0,0,0-.63,1.58c-.23.88.88,1.64.71,2.41s1.2.6,1.37,1.39-.33,2.21-1.09,2.26-1,1.56-1.54,1.75c-.36.12-.74.22-.63.8.06.34,1.08.07.86.78s-1.13.46-1.07,1.15.79.67,1.17.76c1.63.39,3.91.65,5.47-.43.59-.41,1.88-1.49,1.32-2.28-.22-.31-.58-.44-.76-.81a4.55,4.55,0,0,1-.31-1.49A17.86,17.86,0,0,0,258.23,134.26Z" style="fill:#fff"></path><path d="M122.74,143.82c.32.69.61,2.8,1.3,3,1.2.34.61-2.49.45-2.94s-1-4.76-1-4.78c.24-.11.34-.25.35-.39s-.46-.83-.73-1.48c-.55,1.48-1.06,3-1.56,4.49C121.89,142.46,122.49,143.29,122.74,143.82Z" style="fill:#fff"></path><path d="M275.35,262.27a42.66,42.66,0,0,0,4.92-8c.25-.55.5-1.14.71-1.72a5.6,5.6,0,0,0,.39-2.46,4.46,4.46,0,0,1-.2-.64c0-.16,0-.35-.05-.55a2.36,2.36,0,0,0-.11-.62c-.12-.3-1.05-.25-1.52.52a15,15,0,0,0-.72,1.46c-1,2.06-3.12,2.48-4.7,3.7-2.2,1.69-2.57,4.16-3.44,6.45-.57,1.49-2,3.29-1.94,4.8C268.94,270.18,273.89,264.18,275.35,262.27Z" style="fill:#fff"></path><path d="M347.61,257.65a1.58,1.58,0,0,0-.84-1.18,20.61,20.61,0,0,0-3.09-1.05,4,4,0,0,1-1.56-.83,1.83,1.83,0,0,1-.51-.84,3.94,3.94,0,0,1,.7-2.44,3.52,3.52,0,0,0,.14-2.72c-.11-.38-.2-.79-.32-1.16-.2-.59-.63-1-.8-1.59a2.89,2.89,0,0,1,0-2,1.78,1.78,0,0,1,.83-.84,3.36,3.36,0,0,0,1.19-2.18c0-.51,0-1,0-1.37a13.42,13.42,0,0,0-.19-2c0-.33-.2-.59-.25-.91a13.91,13.91,0,0,1,.88-7.09c.32-.65.78-1.24,1.35-1a1,1,0,0,1,.42.37,5.64,5.64,0,0,1,.61,1.54c.13.49.27.95.37,1,1.19.31-.22,4.57,1.93,3.36.66-.38,1.44-.45,2.13-.81a8,8,0,0,0,.83-.5,6.76,6.76,0,0,0,1.8-2,5.6,5.6,0,0,0,.57-1.59,9,9,0,0,0-.1-3.51,9.45,9.45,0,0,0-.51-1.88,1.87,1.87,0,0,1-.22-1.62c.5-1.61,2.48-2.95,3.69-2a2.34,2.34,0,0,0,2.66.38,11,11,0,0,1,3.5-1.32c1.6-.14,3.65-.13,5.14-.95l.41-.23A129.3,129.3,0,0,0,372,203c.09-.56.24-1.5.36-2.3a129.65,129.65,0,0,0-12.72-77.44,7.05,7.05,0,0,1-.78-.21,18.14,18.14,0,0,0-3.61-1,3.33,3.33,0,0,0-2.61,1.16,3.1,3.1,0,0,1-1.46,1,3.37,3.37,0,0,1-2-.3c-.49-.18-1.43-.56-1.53.32s.78,2.35,1,3.23c.41,2-1.39-.15-1.85-.7a6.49,6.49,0,0,0-1.71-1.59c-.37-.21-1.18-.8-1.38-.32a4.19,4.19,0,0,0,.15,1.76c.13.73.11,1-.39.94s-1.05-.14-1.56-.17a4.85,4.85,0,0,1-2.44-.74,4.78,4.78,0,0,1-1.46-3.39,3.55,3.55,0,0,0-.51-1.86,3.19,3.19,0,0,0-1.21-1.19c-1-.45-1.5.49-1.65,1.6s-1.2,1.07-1.24,2.15a6.94,6.94,0,0,0,1,3.14c.39.82,1.16,2,.64,2.66-.75.89-1.87-.39-2.63-1.35-1-1.29-2.13-2.4-3.15-3.7a8.71,8.71,0,0,0-3.17-2.47c-.64-.3-1.16-.09-.67,1,.22.5,1.22,1.61.86,2.23s-1.77-.08-2.26-.19a16.87,16.87,0,0,1-4.09-1.26c-1-.51-2-1.34-3-1.48a5.93,5.93,0,0,0-1.46,0,3.34,3.34,0,0,0-1.7,1,.66.66,0,0,1-.48.22,1.85,1.85,0,0,1-.57,0,1.65,1.65,0,0,1-1-1.84c.18-.63.42-1.29,0-1.84a2.74,2.74,0,0,0-2-.9.86.86,0,0,0-.62.5c-.24.46-.4,1.88-.83,2.76a2.09,2.09,0,0,1-1.05,1.13,4.76,4.76,0,0,1-1.25.16,2.56,2.56,0,0,0-1.48.89c-.84.85-1.55,1.64-2.67,1.52s-1.75-.81-2.38-2.27a25.59,25.59,0,0,1-1.24-3.16c-.46-1.67,1.27-.34,1.75,0,.73.43,1.5.65,2.23,1a8.38,8.38,0,0,0,1.89.71c.52.12,1.45.31,1.66-.55.46-1.88-2.46-5.09-3.3-6.07-.4-.47-.81-.93-1.22-1.37-.69-.73-1.88-1.94-2.65-2.69a5.29,5.29,0,0,0-1.47-1.11c-.86-.33-1.9.6-2.3-1.44a2.77,2.77,0,0,0-1.32-2.24,8.94,8.94,0,0,0-5.1-1.4,4.77,4.77,0,0,0-1.45.34c-.78.3-1.75,1.08-2.31,1.18a1.7,1.7,0,0,1-1-.15c-2-.9-3.36.73-4.4,3.2-.27.66-.5,1.44-.82,2.06a5,5,0,0,1-.71,1c-.43.45-1.47,1.49-2.28,2.37-.5.53-1,1-1.53,1.62-1.45,1.57-3,3.14-4.69,4.77a7.8,7.8,0,0,0-2.55,4.27,5,5,0,0,0,1.09,3.57,3.37,3.37,0,0,0,3.26,1.29c1.75-.07,2.19.94,2.33,3.09a5.4,5.4,0,0,0,.58,2.77,3,3,0,0,0,2.26,1.16c1,0,1.54-.86,1.78-2a3.3,3.3,0,0,1,1.42-2.35,2.65,2.65,0,0,0,1-2.45c0-1.62-.49-3.81-.4-4.85a4.31,4.31,0,0,1,.49-1.7,7,7,0,0,1,.83-1.22c.49-.58,1.88-1.49,3-2.4a8,8,0,0,0,1.77-2.07,4.45,4.45,0,0,1,.77-1,1.78,1.78,0,0,1,2,.14,1.64,1.64,0,0,1,.68,1.16,3.77,3.77,0,0,1-1.12,2.61c-.68.75-1.52.71-2.23,1.36a7.5,7.5,0,0,0-1.39,3.24c-.29,1.1-.78,2.53-.46,3.64.4,1.38,2,1.56,3,1.79.45.1,1,.22,1.46.38a5.19,5.19,0,0,1,2,1.08c.27.31.31,1.36-.1,1.45a2.08,2.08,0,0,1-.74-.06c-1-.17-2-.6-3-.82-.63-.14-1.59-.5-2,.44-.31.71.2,1.54.45,2.12a2.1,2.1,0,0,1,.21,1.84.6.6,0,0,1-.84.27,3,3,0,0,1-1-1.33c-.17-.34-.34-1-.71-.89-.6.11-.87,2-1,2.63a5.27,5.27,0,0,1-1.33,2.76c-1.55,1.31-3.65.6-5.29,0a17.7,17.7,0,0,1-2.84-1.52,5.36,5.36,0,0,1-1.72-1.24c-1-1.4.47-3.7.63-5.29.2-1.87-1.67-1.1-2.26-.14-.93,1.53-.21,3.87-1.23,5.25-.7,1-2,.59-2.95.66A3.69,3.69,0,0,0,261.9,142c-.33.73-1,1-1.57,1.35-.78.49-1.6.84-2.38,1.27a2.37,2.37,0,0,1-1.86.3c-.41-.12-.9-.61-1.29-.42s-.41.89-1.08.93-1.47-.49-2.19-.6c-.48-.08-1.25,0-1,.76s1.06,1.2,1.47,1.68a4.22,4.22,0,0,1,.57,3.76c-.39,1.9-1.29,3.24-3.08,2.87s-3.31-1.23-5.26-1c-1.7.23-2.53,3.12-3,4.73a3.3,3.3,0,0,0-.07,2,6.66,6.66,0,0,0,.32,1.69,2.47,2.47,0,0,0,1.66,1.08,2.32,2.32,0,0,1,1.59,1.21,2.3,2.3,0,0,0,.3.42c.2.2.73-.35,1.25-.31a2.93,2.93,0,0,1,.89.3,3.48,3.48,0,0,0,.87.31c.3,0,.52-.24.75-.25a3,3,0,0,0,2.11-1.62c.26-.4.49-.83.77-1.21a15.46,15.46,0,0,1,1.14-1.15,8.37,8.37,0,0,1,.72-.92c.6-.51,1.14-.23,1.78-.25a2,2,0,0,0,1.81-1.28c.33-.63.53-1.41,1.25-1.49s1.05.5,1.58.68a5.26,5.26,0,0,0,2.76-.31c1.8-.4,2.91.48,3.37,2.41a13.85,13.85,0,0,0,.8,2.56c.28.61.74,1.06,1,1.68.36.77.88,1.44,1.22,2.19a3.36,3.36,0,0,1-.55,2.82c-.18.33-.62.79-.46,1.18s.64.19.91,0c.88-.52,1-1.45,1.33-2.48.14-.46.24-1.05.66-1.07.18,0,.35.16.52.27s.54-.83,0-1.52a2.67,2.67,0,0,0-1-.94c-.32-.12-.8-1.53-1-1.88a20.32,20.32,0,0,1-1.2-2.73,4.19,4.19,0,0,1-.28-2.36c.35-1.15,1.46-.71,1.93,0s.23,1.24.35,1.91c.27,1.47,1.51,2.13,2.3,3.1.55.68.35,1.31.4,2.23a12.41,12.41,0,0,1,.15,2.11,1.4,1.4,0,0,0,.07,1,8.22,8.22,0,0,0,.67,1.2,5.29,5.29,0,0,1,.69,1.05c.15.45.05.38-.13.75-.37.8-.66,1.64,0,2.32s1.24-.77,1.72-1.29a1.64,1.64,0,0,0,.63-1.27c0-.49-.39-.91-.44-1.4-.13-1.24.85-.82,1.46-1s1.67-.85,2.33.06c.38.52.17.87,0,1.41a5.2,5.2,0,0,0-.15,1.93,7.23,7.23,0,0,0-.09,1.9,4.51,4.51,0,0,0,2.81,3.1c.55.17,1.19-.12,1.7.19.22.12.32.38.5.54a2.82,2.82,0,0,0,1.18.51c.56.13,1.14.11,1.69.27.89.27,1.08.61.54,1.57a38.43,38.43,0,0,0-2.28,4.48c-.24.59-.53,2.13-1,2.45s-1.19-.83-1.56-1.18a8.62,8.62,0,0,0-3.9-1.92,18,18,0,0,1-2.18-.6,4.11,4.11,0,0,1-1.89-1c-.8-1.15-2.78-4.33-4.44-2.89-1.12,1-1.4,3.32-3.12,2.42a9.05,9.05,0,0,1-2-1.94,19.31,19.31,0,0,0-3.21-2.61,4.8,4.8,0,0,1-1.91-2.15c-.53-1.36,1-1.29,1.45-2.33a3.12,3.12,0,0,0-.1-2.93,3.72,3.72,0,0,0-2.13-1.07c-.39-.11-.71-.32-1.11-.44a4.8,4.8,0,0,0-1.37-.06,13,13,0,0,1-2.84-.56c-.5-.14-1-.28-1.47-.4-.29-.07-1-.38-1.3-.25-1.55.73-3.44,1.46-5.09.83-1-.4-1.83-1-3-.88a10.06,10.06,0,0,0-3.33,1.14c-.89.43-1.76.92-2.62,1.42s-1.29,1.69-1.63,2.85a3.11,3.11,0,0,1-1.15,1.71,7,7,0,0,1-3.09,1.55,6.59,6.59,0,0,0-3.42,1.52,18.28,18.28,0,0,0-2.42,2.8,10.54,10.54,0,0,0-1.84,7.23c.11.68-1.2,2.27-1.52,2.86a6.08,6.08,0,0,0-.87,3.52,5.63,5.63,0,0,0,.7,2.38c.78,1.45,1,3.22,1.52,4.86a24.21,24.21,0,0,0,1.93,4.48,8.81,8.81,0,0,0,4.29,3.92,5.3,5.3,0,0,0,2.75.41,3.75,3.75,0,0,1,1.5.07,8.41,8.41,0,0,0,3.14.15c.57-.12,1.14-.29,1.66-.43a3.37,3.37,0,0,1,3.22.48,4.93,4.93,0,0,1,1,1.18,13,13,0,0,0,1.82,2.43,3.65,3.65,0,0,0,1.22.7,3.5,3.5,0,0,1,1.77,1.57c1.06,2-.38,3.73-1.78,5.23s-1.13,3.26-.81,4.82c.16.75.22,1.49.39,2.2a6.83,6.83,0,0,1,.36,2.44c-.09.79-.1,1.52-.16,2.27a16.79,16.79,0,0,1-1.12,4.42c-.29.69-.63,1.37-1,2l-.53,1a12.09,12.09,0,0,1-1.14,1.71,7.66,7.66,0,0,0-.59.74,11.58,11.58,0,0,0-1,2.06c-.47,1.18-1.34,3.23-1.79,4.42a10.55,10.55,0,0,0-.61,2.19,56.68,56.68,0,0,0-.26,9.89c0,1.56,0,3.15,0,4.68,0,.78-.07,1.6,0,2.38a10.31,10.31,0,0,1-.3,2.51c-.2,1.73,0,2.9,1.21,3.67a6,6,0,0,0,3.47.6,14.47,14.47,0,0,0,7.49-2.31,18.26,18.26,0,0,0,3.95-3.69,11.28,11.28,0,0,0,1.53-2c.44-.8.81-1.65,1.3-2.42.76-1.18,1.5-2.49,2.31-3.62,1.29-1.77,2.12-3.38,4-4.45a28,28,0,0,1,2.66-1.24c1.44-.65,4-1.63,4.7-3.64,3.26-9.56,2.82-17.9,13.65-22.32,3.11-1.84,7.43-5.18,9.51-8.86,1-1.75.12-3.33-1.22-3.22a19.26,19.26,0,0,1-2.4.09c-.74,0-1.45-.15-2.17-.22a3.55,3.55,0,0,1-1.82-1.08,2.07,2.07,0,0,1-.83-1.79c0-.81.3-1.51.34-2.3a3.59,3.59,0,0,0-.69-1.95,13.84,13.84,0,0,1-1.46-4.43,17,17,0,0,1,.23-4.82,7.6,7.6,0,0,0-.39-3.17,20.34,20.34,0,0,1-.55-3.23c-.11-1.09-.59-4.88,1-5.17,1.21-.23,1.08,3,1.2,4,.23,1.81.57,3.5.93,5.16q.27,1.29.57,2.58c.31,1.43.67,3.17.8,3.89.08.43.16.86.23,1.3a8.93,8.93,0,0,1,.36,2.52c-.49,3.18-.08,5.11,1.64,5.52s4.32-.55,6-.91a48.78,48.78,0,0,0,8.58-2.6,12,12,0,0,0,2.05-1.62,8.35,8.35,0,0,0,2.07-2.16,1.75,1.75,0,0,0-.1-2.14c-.35-.4-.91-.38-1.17-.81s-.15-1.36-.34-1.95c-.36-1.14-1.29-.69-2.14-.49s-2.67.68-3.21-.15c-.37-.57.06-1,0-1.6s-.48-.45-.82-.68c-.85-.6-.81-2.11-1-3.16-.13-.8-.42-2.58.1-3.35.86-1.28,1.75,1.06,2,1.69a20.75,20.75,0,0,1,1.13,2.2,3.5,3.5,0,0,0,1.15,1.58,13.21,13.21,0,0,0,1.51,1.32c.43.24,1,.21,1.38.53a1.71,1.71,0,0,1,.56.73,4.9,4.9,0,0,0,2.66,2.49c1.32.41,2.78.51,4.06.79a6.07,6.07,0,0,1,2.84,1.18,5.79,5.79,0,0,1,1.74,3.4c.09,1.06,0,2.49.82,3.25s2.09-1.26,2.48-.56c.21.38-.1,1.25-.19,1.66a14,14,0,0,0-.24,1.58c-.14,1.22-.28,2.45-.42,3.7a61.08,61.08,0,0,0-.51,7.66c0,1.21.06,3,.94,3.72.39.29,1.27-.1,1.71-.44a5.44,5.44,0,0,0,1.06-1.31,16.18,16.18,0,0,0,1.1-1.88,23.52,23.52,0,0,1,2.14-3.44,13.13,13.13,0,0,1,1.27-1.31,13.59,13.59,0,0,1,2.65-2,12.2,12.2,0,0,0,2.16-1.16c.28-.22.55-.46.82-.69a18.46,18.46,0,0,1,1.63-1.24,1.94,1.94,0,0,1,.88-.36,5.19,5.19,0,0,1,1,.19c.7.1,1.08-.38,1.74-.53s1.05.5,1.27,1c.63,1.44.06,3.27-.27,4.85-.16.78-.41,1.78.29,2.09s1.28,0,1.66.77.05,2.07.11,3,.64,1.51.44,2.5c-.13.63-.41.65-.8,1s-.37.77-.38,1.32a3.17,3.17,0,0,1-.48,1.67c-.28.46-.77.87-.88,1.43a.74.74,0,0,0,.3.82,2.21,2.21,0,0,1,.56,1.67c0,.4-.1.81-.14,1.1a6.24,6.24,0,0,0-.09,1.33,4,4,0,0,0,.09.4,2.93,2.93,0,0,1-.24,1.4c-.15.34-.37.62-.65.66s-.49-.2-.7-.49-.75-1.06-1-1.39a1.76,1.76,0,0,0-.61-.49c-1.24-.5-.82,3-.67,3.55s.34.89.47,1.37a4,4,0,0,1,0,1.53,16.53,16.53,0,0,0,.2,3.34,12.55,12.55,0,0,0,.63,3,6.1,6.1,0,0,0,.63,1.25c.08.11.89.93.87,1-1.37,3.59,2.42,2.31,3.34,3.84.66,1.34,2,1.37,3.28,1.65a5.38,5.38,0,0,0,1,.13c.21-.27.4-.55.61-.83C348.06,258.36,347.67,258.09,347.61,257.65Zm-53.53-86.23a13.8,13.8,0,0,1-3-1.92c-1.35-1-3.93-1.2-5.53-1.35a5.09,5.09,0,0,1-2.24-.66c-1.38-.92.63-4.08,1.79-5.52a7.34,7.34,0,0,1,2.06-2c1.51-.74,3.41,1.47,2.89,1.77s-.11.9-.15,1.37.25,1,.8.75.67-2.37,2.26-2.66a5,5,0,0,1,.59-.07c1.6-.13,2.07.89,1.27,2.64a3.87,3.87,0,0,0-.37,1.31c-.14,2,1.63,2.8,1.58,3s.57.68.91,1.53S295.6,172,294.08,171.42Zm14.56,10.74c-.73,1.29-2.44,1.07-3.74-.18s-.6-3.82-.06-5.45-1.56-4-1.26-5.94c.54-3.44,4.08-5.07,6.05-4.26,1.52.63-.26,2.59-1.5,3.86-.43.45-.33,1,0,1.87a19.79,19.79,0,0,0,2.23,3.77c.46.87-.62,1.43-1.53,1.43S309.56,180.53,308.64,182.16Z" style="fill:#fff"></path><path d="M177,238c.87-.89,2.89-1.4,4.29-1.52,1.1-.09,1.75.1,2.8-.88a8.51,8.51,0,0,0,2.15-4.38c.13-1.08.9-1.94,1-2.72a17.21,17.21,0,0,1,.87-5.07c1.22-2.92,4.51-3.92,5.87-6.95.86-1.9-.55-4.44-1.75-5.56s-2-4.17-3.61-4.67l-.53-.16c-1.62-.5-3.31-3.39-4.72-4.53a10.64,10.64,0,0,0-1-.7c-1.5-.93-2.74-3.49-3-5.6s-.66-3.89-1.73-5.05c-1.44-1.55-4.28-.88-5.17-3.26a8.37,8.37,0,0,0-1.57-2.84,8.86,8.86,0,0,1-1.8-2.7c-.57-1.57-1.71-.9-2.67-1.77-.55-.51-.67-.93-1.43-1.18a29.87,29.87,0,0,1-3-1c-.76-.34-.91-.85-1.39-1.55-1.1-1.6-3.7-1.54-5-.58-.65.47-1.13,1.37-1.76,1.78-1.28.84-3-.75-4-1.8a7.69,7.69,0,0,1-1.74-2.88c-.41-1.31-.89-1.78-.4-3.14.35-1,1-2.2.54-3.3a3.29,3.29,0,0,0-2-1.6c-.62-.24-1.53-.24-2-.79a2.4,2.4,0,0,1-.28-2.45c.32-.48,1-.61,1.38-.94a2.07,2.07,0,0,0,.57-.67c.06-.14.11-.8.15-.83.94-.89.9-1.61.37-2.07a2.82,2.82,0,0,0-3.8.88c-.72,1.29-3.24,1.48-4.45.39-2.39-2.15-2-7.81,0-11.05.94-1.48,3.41-3.13,4.92-2.85,1.22.23,2.31,1.12,3.61,1.68.52.27.63-.12.75-.52.2-.64,1.44-.2,2.36.06a5,5,0,0,1,3.31,3,11.54,11.54,0,0,1,.26,2.54c.07,1.8,1.93,3.45,2.08,1.57.09-1.17,0-2.73.09-4.08.12-1.87,2.19-3.71,3.59-4.25a20.66,20.66,0,0,0,2.54-1,4,4,0,0,0,1.86-1.63c.38-.91,0-2,.45-3a5.33,5.33,0,0,1,1.19-1.87,6.61,6.61,0,0,1,3.15-1.76c1.06-.22,2.57.45,3.48-.62s1.16-1.84,2.5-2.49a9.73,9.73,0,0,1,2.59-.78c1.43-.25.06,1.71,1.6,2a12.91,12.91,0,0,0,4.89-.67c1.7-.5,2.84-1.93,2.58-2.6s-2.45,1.71-3.77.92a2.08,2.08,0,0,1-.38-.3c-1.09-1.07-.1-3.23-.37-3.27s-.12-.41.27-.45,1.67-2.29,0-2.2c-.28,0-.58.06-.89.1-1.66.26-1.44-.93.22-1.2,2.63-.45,5.35.2,8.07.41,1.63.13,1.88,1.1.45,2.45s-2.28,2.29-1.26,2.88c1.36.78,3.36.7,3.19,1.29-.11.38-.2.74.41.54.94-.31,1.31,1.22,2.28.49a1.68,1.68,0,0,0,.42-1.65c-.13-.91-.14-2.49-1-2.83s-.28-2.62.84-4.28c.12-.17.24-.35.34-.52,1.06-1.69-.66-3.91-1.42-5.26-2.24-4-1-3.72-1.06-8.23,0-1.68-1.44-1.88-3.1-1-.88.46-1.71.73-2.18.49-1.23-.61,1-4.16.3-4.85-.39-.38-1-.67-.95-1.53A2.57,2.57,0,0,0,183.9,99c-1.33-.2-3.52,1.61-4,3s-2.48,3-2.39,4.16-.2,3.77-1.76,4.85c-.94.64-2.06,1-2.91,1.71-1.5,1.22-1.27,4-2.18,4.7a1.09,1.09,0,0,1-1.52,0,4.15,4.15,0,0,1-.79-3c.55-2.24,1.88-3.21.21-4.32a20.23,20.23,0,0,1-5.61-5.49c-.67-1-.17-1.94.06-3.24s-.71-2,1.36-3.21c1.3-.75,2.94-1,4.12-2.42s-.23-2,1.18-2.87,3.37.32,4.55.23a2.31,2.31,0,0,0,1.68-.65c.89-.93,0-1.28.06-1.89,0-.19.38-.18.74-.13a3.56,3.56,0,0,0,1.43.1A2.48,2.48,0,0,0,179,90c.29-.23.35-.47.69-.68a1.74,1.74,0,0,1,.94-.2,4.36,4.36,0,0,0,2,0,6.45,6.45,0,0,0,3-1.42,5.14,5.14,0,0,0,1.3-1.89c0-.41-.46-.54-.18-1.11.92-1.9,3.05-1.18,3.81-1.07,1.14.15,2.51.29,1.4,2.11-.49.8-1.54,2.78,0,2,.9-.41,1.27-.64,1.43.09a1.93,1.93,0,0,1-.2,1.89,2.53,2.53,0,0,1-1.7,1.11c-1,.26-2.91,2.73-4.22,2.52l-.64-.11c-1.33-.17-2.43,2.67-1,2.55s2.52,1.14,3,2.43c.61,1.81,1.77,3.94,2.64,4.24,1.3.45,1.58-2.61,2.3-2.62a3.62,3.62,0,0,1,1.25.12c.21.08,1-1.51,1.05-1.69a2.57,2.57,0,0,0,0-1.5c-.27-.88-1.06-1.23-.91-2.43s1.85-2,2.34-1.31a2.47,2.47,0,0,1,.21,1.42c0,.88.49,1.55.85,1.51a1.8,1.8,0,0,0,.69-.22c.6-.34.82-1,1.34-1.34.85-.63,1.48-.13,2.29-.72a1.12,1.12,0,0,0,.34-1.71c-.69-1.08-1.62-1.9-2.28-2.9-.14-.21-.3-.37-.41-.56-.18-.34.14-1.32.55-2a6.9,6.9,0,0,0,.64-1.18,2,2,0,0,0-.19-1.55,6.68,6.68,0,0,0-.74-1.46c-.5-.72-2.1-1.4-2.27-2.54s-.06-2.5-.95-2.75c-.11,0-.56.17-.72.17a1,1,0,0,1-.6-.17c-.32-.22-.41-.62-.65-.9a2.28,2.28,0,0,0-2.34-.64,8.76,8.76,0,0,1-1.2.18,9.11,9.11,0,0,1-2-.33,9.45,9.45,0,0,0-3.21.74,7.52,7.52,0,0,0-2,1.08c-.92.76-1.95,2.14-1.39,2.54s1.81.47,2.55.82,2.37.85,1.06,2.27c-1,1.07-2.24.19-3,1.63-.25.46-.23,1-.77,1.45a6.35,6.35,0,0,1-1.6.93,10.19,10.19,0,0,1-1.43.55c-.64.14-1.27-.26-.89-.95s1.06-.8,1.44-1.35a.75.75,0,0,0-.09-1.08,1.83,1.83,0,0,0-.47-.34,1.67,1.67,0,0,1-.66-1,3.21,3.21,0,0,1,0-.76c0-.44,0-.91,0-1.4a3.59,3.59,0,0,1,1.58-2.25c.29-.13.61-.23,1-.41a15.89,15.89,0,0,0,2.24-1.38c1.54-1.12,2.34-2.45,1.2-2.76s-3.33.35-4.81,1.85a20.36,20.36,0,0,1-2.51,2.6c-.93.67-2,1-2.87,1.71s-1.11,1.45-1.83,2.17-.79.44-1.4.56c-1.38.26-2,2.2-3.45,2.67a3,3,0,0,1-1.31,0,4.16,4.16,0,0,1-2-.72c-.16-.12-.38-.27-.09-.61.43-.5,1-.44,1.45-.56a6,6,0,0,0,3.39-3c.21-.67-.41-.87-.62-1.28a2.81,2.81,0,0,1,.48-2.78q-4.23,3-8.17,6.28a.59.59,0,0,1,.37.56c0,.36-.31.68-.75,1.08s-.55.54-.78.8c-.39.45-2,2.1-2.42,1.45a2.93,2.93,0,0,1-.28-.56,129.07,129.07,0,0,0-34.28,50,1.07,1.07,0,0,1,.89.65c.72,1.36.38,4.1,1.1,5.47,1.2,2.28,2.54,5.06,2.69,7.73.1,1.75.21,4.33,1.21,5.66,1.94,2.6,4.49,5,7.2,5.83s3.73,6.43,6.75,6.05c.36-.05.87,2.6.95,3a9.82,9.82,0,0,0,1.81,3.54,19.92,19.92,0,0,0,2.88,2.92c1.87,1.67,4,4,2.22,7.11a49.67,49.67,0,0,1-4,5.18c-1.37,1.82-2.54,3.73-2.26,6.14s1.41,4.4,1.72,6.72-1,4.64-.75,7.16c.36,3.15,2.19,4.4,4.35,6.45a9.41,9.41,0,0,1,3.11,5.8,83.16,83.16,0,0,1,1,15.84c-.12,6.59-.81,13.39.52,19.86a27.15,27.15,0,0,0,3.28,9c1.1,1.79,2.63,2.46,3.52.12.55-1.43-.09-3.06-.11-4.55s1-2.38,1.48-3.73c.43-1.12.13-3.19,1.26-3.78s2,.49,3-.53c1.14-1.28-.19-2.62,0-3.9s2.21-.49,3.26-1.29c.66-.5.81-1.45,1.36-2s.79-.44,1.3-.71a6.74,6.74,0,0,0,2.18-2.35C176.54,241.72,175.74,239.26,177,238ZM155,120.87c1.66-.64,4.82-2.31,5.72-1.23a4.7,4.7,0,0,1,.66,2.22c.23,1.57,2,2.78,2.85,3.76s-1.08,1.43-1.68,2.44-1.54,1.12-1.26.53c.16-.36.25-.66-.35-.65-.84,0-.45-.46,0-1,.61-.71-1-2.18-2.21-.69a12.4,12.4,0,0,0-.86,1.28c-1,1.6-2.64.9-1.64-.68.13-.21.27-.41.41-.61,1.1-1.53,1.37-3.77-.06-4.17C155,121.63,153.26,121.57,155,120.87Z" style="fill:#fff"></path><path d="M181,70.62c0,.73,1.06.5,1.34.29s1.91-1.5,1.78-2.35c-.06-.42-.47-.5-1-.42-.71.38-1.41.78-2.12,1.18A5.05,5.05,0,0,0,181,70.62Z" style="fill:#fff"></path><path d="M246.37,137.16c0,1.34,1.56,1,2.34,1.06a3.55,3.55,0,0,0,2.63-1.57,3.35,3.35,0,0,0,.44-2.29c-.14-.74-.71-2.15-1.52-1.91-.33.1-.37.49-.66.6s-.94-.27-1.33-.3c-1.1-.09-.67,1.27-.71,1.95a2.38,2.38,0,0,1-.51,1.26C246.79,136.31,246.36,136.65,246.37,137.16Z" style="fill:#fff"></path><path d="M263.28,163c1.16-1.38,1.44-6.51.24-5a6.87,6.87,0,0,0-.59.87C262,160.57,262.13,164.4,263.28,163Z" style="fill:#fff"></path><path d="M357.55,243.83c1-.87,1.67-2.31.54-2.89s-2.1.47-3.29,1.12a26.92,26.92,0,0,1-4.47,1.85c-.94.29-2-.72-2.74.58a6.81,6.81,0,0,0-.76,3.8,6.73,6.73,0,0,0,.38,2.75c.76,1.55,2.34,2.68,4.33,1.76a3.55,3.55,0,0,0,.87-.6c.43-.4,1.06-1.28,1.62-1.75q1.39-2.25,2.7-4.55A2,2,0,0,1,357.55,243.83Z" style="fill:#fff"></path><path d="M159.39,162.07a7.56,7.56,0,0,1-2.9-2.22c-.78-.89-1.7-2-2.87-1.85-.88.08-.2,1.25.19,1.79a11.58,11.58,0,0,0,.95,1.13c.54.59,1.2,1.6,1.62,2.05a1.66,1.66,0,0,0,.9.53c1.37.32,3-.07,4,1.38.25.34.54,1.22,1,1.3h.08c.48,0,.65-.84.59-1.32C162.73,163,160.53,162.54,159.39,162.07Z" style="fill:#fff"></path><path d="M267.06,169.22a1.37,1.37,0,0,0-.27-1.95c-.36-.33-.59.13-.79.69S266.28,170.17,267.06,169.22Z" style="fill:#fff"></path><path d="M256.26,161c.72-.39.8-1-.83-1.47-.25-.1-.78.21-1.18.61C253.68,160.72,255,161.69,256.26,161Z" style="fill:#fff"></path><path d="M249.23,109.16c1.41-1.43.23-4.73-.69-4.89a7.28,7.28,0,0,0-1.71.27,10.12,10.12,0,0,1-1.78-.39c-1-.21-2.36.82-2.75-.31s-2,1.54-1.57,3.53C241.69,112,247.11,111.3,249.23,109.16Z" style="fill:#fff"></path><path d="M177.32,92.47c-1.22,1.37-1.88,2.79-1.27,3.37s2.86.11,4.3.19c2.06.11.83-1.28,0-3C179.81,92,178.54,91.11,177.32,92.47Z" style="fill:#fff"></path><path d="M244.12,86.68c1.26-.41,3.54-1.32,3.79-3.39.15-1.24-.37-1.89.08-3.17a5.3,5.3,0,0,1,.71-1.34A14.76,14.76,0,0,1,250.62,77a1.6,1.6,0,0,0,.57-1.26c0-1-.82-1.33-1.07-2-1.28-3.49,7.79-6.44,7.52-8a1,1,0,0,0-.49-.63,6.65,6.65,0,0,0-1.51-.76,2.21,2.21,0,0,0-2.32.44c-.76.49-1.7,1-1.83.71-.05-.11,0-.34-.11-.68-.24-1-.5-.36-1.22-.23-.36.06-1.43-.18-1.19-1.13s1.54-1.6,2-2a2.43,2.43,0,0,1,1.15-.62c.62-.12,1-1.39.42-2.37a5.73,5.73,0,0,0-2.21-2.06,8.7,8.7,0,0,0-5.63-1.11,12.57,12.57,0,0,0-3.28.78c-1.53.59-3.46,2.46-5.19,3.13a2.09,2.09,0,0,1-2.3-.4c-1.12-.76-2.58-1.74-5.6-.12-1.86,1-1,1.42-2,2.57s-2.51.35-3.17.41A3.17,3.17,0,0,0,220.31,64c-.08.29-.24.52-1.3,1a24,24,0,0,1-4.14,1.27,5.88,5.88,0,0,0-3.08,1.71c-.89.89-.49,1-.3,1.43a1.6,1.6,0,0,1,.14.72c0,.45-.34,1.57.11,1.89s2.27.17,3.61.12c2.26-.09,4.33,0,4.73,2a4.16,4.16,0,0,1-.16,2,19.69,19.69,0,0,1-2.76,4.56,3.86,3.86,0,0,0-1,2.09c.06,1.34,1.5,1.8,1.53,3.3a5.69,5.69,0,0,1-2,3.65c-1.22,1.23-2.3,1.47-3.56,2.44s-1.44,2.44-2.06,3.66a13.22,13.22,0,0,0-1.26,4.74,37.35,37.35,0,0,0-.1,5.29,5.65,5.65,0,0,0,.35,2c.39,1,2.12,1.71,3.48,1.83a4.32,4.32,0,0,0,2.62-.58c1.91-1.16,2.45-3.75,3.66-5.56a5.49,5.49,0,0,1,3.91-2.61c1.38-.21,3.09-.11,4.5-1,1.15-.74,2.17-2.14,3.34-2.78,1.59-.86,3.39-.22,4.87-.35,1-.1,3.12-.44,3.72-1.71.32-.69.18-1.15.75-1.73a2.8,2.8,0,0,1,1.29-.6c.18,0,.48,0,.78,0s.86-.91.74-1.45c-.09-.37-.21-.72-.24-1C242.32,88.47,242.62,87.17,244.12,86.68Z" style="fill:#fff"></path><path d="M179.05,74.79c.68-.25,1.5-.54,1.34-.91,0-.11-.21-.17-.26-.29s-.87-.41-2.51-.14S175.17,74.92,174,75s-1,2.19-.3,3c1,1.17,3.14.27,4.51-.78C180,75.86,178.09,75.15,179.05,74.79Z" style="fill:#fff"></path></g><path d="M322.4,91.53c-65.16-55.64-102.33-10.88-77.2,39.34s88.41,91.72,107.22,74.64S370.83,132.89,322.4,91.53Z" style="fill:#fff;opacity:0.2"></path><g style="opacity:0.15"><path d="M163.63,226.77C116.88,158.5,187.08,54.62,257.78,53.41h0c-2.48-.25-5-.46-7.51-.57a129.25,129.25,0,1,0,82.15,223.8C306.93,295.11,212.69,298.41,163.63,226.77Z" style="fill:#6E9DF5"></path></g></g><g id="freepik--Lines--inject-230"><path d="M153.87,209.48a.5.5,0,1,0-.63.77c1,.85,2.06,1.69,3.12,2.53A.5.5,0,0,0,157,212C155.93,211.16,154.9,210.32,153.87,209.48Z" style="fill:#fafafa"></path><path d="M148.53,205a.5.5,0,1,0-.66.76c1,.87,2,1.74,3,2.61a.51.51,0,0,0,.32.12.5.5,0,0,0,.39-.18.51.51,0,0,0-.06-.71C150.54,206.7,149.53,205.83,148.53,205Z" style="fill:#fafafa"></path><path d="M159.34,213.85a.51.51,0,0,0-.71.09.5.5,0,0,0,.09.7c1.05.82,2.11,1.64,3.18,2.45a.49.49,0,0,0,.3.1.51.51,0,0,0,.4-.2.49.49,0,0,0-.1-.7Z" style="fill:#fafafa"></path><path d="M128.63,185.34a.51.51,0,0,0-.71-.05.5.5,0,0,0,0,.71c.87,1,1.76,2,2.68,3a.49.49,0,0,0,.37.16.5.5,0,0,0,.37-.84Q129.93,186.83,128.63,185.34Z" style="fill:#fafafa"></path><path d="M143.31,200.3a.5.5,0,0,0-.68.74c1,.9,2,1.8,3,2.7a.5.5,0,0,0,.33.12.48.48,0,0,0,.38-.17.5.5,0,0,0,0-.7C145.27,202.09,144.29,201.2,143.31,200.3Z" style="fill:#fafafa"></path><path d="M126.12,109.78c-1.27.54-2.5,1.12-3.66,1.72a.51.51,0,0,0,.23,1,.46.46,0,0,0,.23-.06c1.14-.59,2.34-1.16,3.59-1.68a.5.5,0,0,0,.27-.66A.52.52,0,0,0,126.12,109.78Z" style="fill:#ebebeb"></path><path d="M124.15,180a.51.51,0,1,0-.79.63c.83,1,1.68,2.07,2.55,3.1a.5.5,0,0,0,.39.18.5.5,0,0,0,.38-.82C125.81,182,125,181,124.15,180Z" style="fill:#fafafa"></path><path d="M164.9,218.09a.5.5,0,0,0-.6.8c1.07.8,2.15,1.59,3.24,2.38a.53.53,0,0,0,.3.09.49.49,0,0,0,.4-.21.5.5,0,0,0-.11-.7C167,219.67,166,218.88,164.9,218.09Z" style="fill:#fafafa"></path><path d="M133.34,190.5a.5.5,0,0,0-.73.69c.92,1,1.85,1.92,2.8,2.89a.51.51,0,0,0,.36.15.5.5,0,0,0,.35-.15.5.5,0,0,0,0-.71C135.18,192.41,134.25,191.46,133.34,190.5Z" style="fill:#fafafa"></path><path d="M138.25,195.48a.5.5,0,0,0-.71,0,.5.5,0,0,0,0,.71c1,.93,1.91,1.86,2.89,2.79a.5.5,0,0,0,.69-.73C140.15,197.33,139.19,196.41,138.25,195.48Z" style="fill:#fafafa"></path><path d="M209.76,246.22c-1.18-.63-2.36-1.26-3.53-1.9a.5.5,0,0,0-.68.21.51.51,0,0,0,.2.68c1.17.63,2.35,1.27,3.54,1.89a.46.46,0,0,0,.23.06.5.5,0,0,0,.24-.94Z" style="fill:#fafafa"></path><path d="M216,249.44c-1.19-.6-2.38-1.21-3.56-1.83a.5.5,0,0,0-.67.22.49.49,0,0,0,.21.67c1.18.62,2.37,1.23,3.57,1.84a.44.44,0,0,0,.22,0,.5.5,0,0,0,.23-.95Z" style="fill:#fafafa"></path><path d="M119.93,174.42a.5.5,0,1,0-.82.58q1.15,1.62,2.4,3.24a.49.49,0,0,0,.39.19.49.49,0,0,0,.4-.8Q121.07,176,119.93,174.42Z" style="fill:#fafafa"></path><path d="M203.6,242.88c-1.17-.65-2.33-1.3-3.48-2a.51.51,0,0,0-.5.88c1.16.66,2.32,1.31,3.5,2a.53.53,0,0,0,.24.06.49.49,0,0,0,.44-.26A.5.5,0,0,0,203.6,242.88Z" style="fill:#fafafa"></path><path d="M222.24,252.56l-3.59-1.77a.5.5,0,0,0-.67.23.49.49,0,0,0,.22.67c1.2.59,2.39,1.19,3.6,1.77a.44.44,0,0,0,.22,0,.49.49,0,0,0,.45-.28A.5.5,0,0,0,222.24,252.56Z" style="fill:#fafafa"></path><path d="M179.65,228.4l-3.33-2.22a.5.5,0,0,0-.56.83c1.1.75,2.21,1.49,3.34,2.23a.45.45,0,0,0,.27.08.52.52,0,0,0,.42-.22A.51.51,0,0,0,179.65,228.4Z" style="fill:#fafafa"></path><path d="M185.53,232.2,182.16,230a.51.51,0,0,0-.55.85l3.38,2.16a.54.54,0,0,0,.27.07.51.51,0,0,0,.43-.23A.5.5,0,0,0,185.53,232.2Z" style="fill:#fafafa"></path><path d="M197.51,239.43c-1.16-.67-2.31-1.34-3.45-2a.5.5,0,0,0-.51.87c1.14.68,2.3,1.35,3.46,2a.47.47,0,0,0,.25.07.52.52,0,0,0,.44-.25A.52.52,0,0,0,197.51,239.43Z" style="fill:#fafafa"></path><path d="M191.49,235.87c-1.15-.69-2.29-1.38-3.42-2.08a.49.49,0,0,0-.69.16.5.5,0,0,0,.17.69c1.13.7,2.27,1.4,3.42,2.09a.5.5,0,0,0,.26.08.51.51,0,0,0,.43-.25A.52.52,0,0,0,191.49,235.87Z" style="fill:#fafafa"></path><path d="M170.57,222.2a.5.5,0,1,0-.58.82c1.08.77,2.18,1.53,3.29,2.3a.46.46,0,0,0,.28.08.51.51,0,0,0,.42-.21.52.52,0,0,0-.13-.7C172.74,223.73,171.65,223,170.57,222.2Z" style="fill:#fafafa"></path><path d="M116,168.63a.5.5,0,0,0-.85.53c.7,1.11,1.44,2.24,2.2,3.37a.5.5,0,0,0,.41.22.52.52,0,0,0,.29-.09.49.49,0,0,0,.13-.69C117.46,170.85,116.73,169.73,116,168.63Z" style="fill:#fafafa"></path><path d="M399.84,243.83c.28,1.31.49,2.63.64,3.9a.5.5,0,0,0,.5.44H401a.5.5,0,0,0,.44-.56c-.15-1.3-.37-2.64-.66-4a.49.49,0,0,0-.59-.39A.5.5,0,0,0,399.84,243.83Z" style="fill:#ebebeb"></path><path d="M393.9,228.1a.51.51,0,0,0,.45.27.46.46,0,0,0,.23-.06.5.5,0,0,0,.21-.68c-.61-1.17-1.27-2.35-2-3.52a.5.5,0,1,0-.87.51C392.65,225.77,393.3,226.94,393.9,228.1Z" style="fill:#ebebeb"></path><path d="M386.53,216.27a.48.48,0,0,0,.4.21.53.53,0,0,0,.3-.09.51.51,0,0,0,.11-.7c-.77-1.07-1.56-2.15-2.39-3.23a.5.5,0,0,0-.7-.09.49.49,0,0,0-.1.7C385,214.14,385.76,215.21,386.53,216.27Z" style="fill:#ebebeb"></path><path d="M382.31,210.71a.48.48,0,0,0,.39.19.5.5,0,0,0,.39-.82c-.82-1-1.67-2.06-2.55-3.1a.5.5,0,1,0-.77.65C380.64,208.66,381.49,209.69,382.31,210.71Z" style="fill:#ebebeb"></path><path d="M373.83,199.51c-.38-.41-.76-.8-1.15-1.21l-.17,1.28.6.62a.5.5,0,0,0,.36.16.52.52,0,0,0,.35-.14A.5.5,0,0,0,373.83,199.51Z" style="fill:#ebebeb"></path><path d="M107.35,149.73a.5.5,0,1,0-1,.27c.35,1.26.76,2.56,1.22,3.85a.5.5,0,0,0,.47.33.51.51,0,0,0,.17,0,.49.49,0,0,0,.3-.64C108.09,152.24,107.69,151,107.35,149.73Z" style="fill:#ebebeb"></path><path d="M105.31,140.52a.5.5,0,0,0,.48-.52c0-.38,0-.75,0-1.12,0-.95,0-1.9.12-2.82a.51.51,0,0,0-.46-.55.5.5,0,0,0-.54.46c-.09.95-.13,1.93-.13,2.91,0,.38,0,.77,0,1.15a.51.51,0,0,0,.5.49Z" style="fill:#ebebeb"></path><path d="M109.61,156.29a.5.5,0,0,0-.93.38c.5,1.21,1,2.45,1.64,3.69a.48.48,0,0,0,.45.28.44.44,0,0,0,.22,0,.5.5,0,0,0,.23-.67C110.64,158.7,110.1,157.48,109.61,156.29Z" style="fill:#ebebeb"></path><path d="M106.65,146.85c-.28-1.32-.49-2.63-.64-3.9a.51.51,0,0,0-.55-.44.5.5,0,0,0-.45.55c.15,1.3.37,2.65.65,4a.5.5,0,0,0,.49.39h.11A.5.5,0,0,0,106.65,146.85Z" style="fill:#ebebeb"></path><path d="M114.14,117.24a29.86,29.86,0,0,0-2.8,3,.49.49,0,0,0,.06.7.51.51,0,0,0,.32.12.5.5,0,0,0,.39-.18,29,29,0,0,1,2.71-2.85.5.5,0,0,0,0-.71A.51.51,0,0,0,114.14,117.24Z" style="fill:#ebebeb"></path><path d="M112.56,162.59a.49.49,0,0,0-.67-.21.51.51,0,0,0-.22.68c.62,1.17,1.28,2.35,2,3.52a.5.5,0,0,0,.43.25.48.48,0,0,0,.26-.07.51.51,0,0,0,.18-.69C113.82,164.92,113.17,163.75,112.56,162.59Z" style="fill:#ebebeb"></path><path d="M135.83,107.66H136c1.05-.26,2.13-.5,3.22-.71l.78-1.08a.51.51,0,0,0-.3,0c-1.34.25-2.66.54-3.94.85a.51.51,0,0,0-.37.61A.5.5,0,0,0,135.83,107.66Z" style="fill:#ebebeb"></path><path d="M105.72,133.53h.09a.49.49,0,0,0,.49-.41,28.71,28.71,0,0,1,1-3.8.5.5,0,0,0-.31-.63.5.5,0,0,0-.64.31,27.15,27.15,0,0,0-1,3.94A.48.48,0,0,0,105.72,133.53Z" style="fill:#ebebeb"></path><path d="M116.78,116.18a.47.47,0,0,0,.3-.1,38.89,38.89,0,0,1,3.26-2.23.5.5,0,0,0-.52-.86,39.39,39.39,0,0,0-3.35,2.29.51.51,0,0,0-.09.71A.5.5,0,0,0,116.78,116.18Z" style="fill:#ebebeb"></path><path d="M107.77,126.81a.41.41,0,0,0,.19,0,.55.55,0,0,0,.49-.31,27.71,27.71,0,0,1,1.9-3.35.5.5,0,0,0-.84-.56,29.13,29.13,0,0,0-2,3.47l0,.08A.47.47,0,0,0,107.77,126.81Z" style="fill:#ebebeb"></path><path d="M129.12,109.66l.17,0c1.2-.43,2.48-.84,3.78-1.21a.51.51,0,0,0,.34-.63.51.51,0,0,0-.62-.34c-1.32.38-2.62.8-3.84,1.24a.5.5,0,0,0,.17,1Z" style="fill:#ebebeb"></path><path d="M349.76,285.72c-1.31,0-2.64.07-4,.07a.5.5,0,0,0-.5.5.5.5,0,0,0,.5.5h0q2,0,4-.06a.51.51,0,0,0,.49-.52A.5.5,0,0,0,349.76,285.72Z" style="fill:#ebebeb"></path><path d="M356.72,285.31c-1.3.12-2.63.21-4,.28a.52.52,0,0,0-.48.53.51.51,0,0,0,.5.48h0c1.36-.08,2.7-.17,4-.29a.5.5,0,0,0,.46-.54A.51.51,0,0,0,356.72,285.31Z" style="fill:#ebebeb"></path><path d="M363.65,284.48c-1.29.2-2.62.38-3.95.53a.5.5,0,0,0,.05,1h.06c1.35-.16,2.69-.34,4-.54a.5.5,0,1,0-.15-1Z" style="fill:#ebebeb"></path><path d="M342.77,285.77c-1.31,0-2.64-.06-4-.12a.48.48,0,0,0-.52.48.5.5,0,0,0,.48.52q2,.09,4,.12h0a.5.5,0,1,0,0-1Z" style="fill:#ebebeb"></path><path d="M328.82,285c-1.31-.12-2.63-.26-4-.42a.52.52,0,0,0-.56.44.51.51,0,0,0,.44.56c1.35.16,2.68.3,4,.42h0a.51.51,0,0,0,0-1Z" style="fill:#ebebeb"></path><path d="M321.88,284.17c-1.31-.17-2.63-.36-4-.56a.51.51,0,0,0-.57.43.5.5,0,0,0,.42.57c1.34.2,2.66.38,4,.55h.06a.51.51,0,0,0,.5-.44A.5.5,0,0,0,321.88,284.17Z" style="fill:#fafafa"></path><path d="M335.79,285.5c-1.31-.08-2.64-.17-4-.28a.51.51,0,0,0-.54.46.5.5,0,0,0,.46.54c1.35.11,2.68.2,4,.28h0a.5.5,0,0,0,0-1Z" style="fill:#ebebeb"></path><path d="M394.34,270a29.12,29.12,0,0,1-2.72,2.85.5.5,0,0,0,0,.7.51.51,0,0,0,.37.17.48.48,0,0,0,.34-.14,28.66,28.66,0,0,0,2.81-2.93.5.5,0,0,0-.77-.65Z" style="fill:#ebebeb"></path><path d="M397.33,234.7a.63.63,0,0,0,.19,0,.5.5,0,0,0,.27-.66c-.5-1.21-1.05-2.45-1.64-3.68a.5.5,0,0,0-.91.43c.59,1.22,1.13,2.44,1.62,3.63A.5.5,0,0,0,397.33,234.7Z" style="fill:#ebebeb"></path><path d="M399.62,241.32l.13,0a.49.49,0,0,0,.35-.62c-.35-1.26-.76-2.56-1.22-3.85a.5.5,0,0,0-.64-.3.51.51,0,0,0-.31.64c.46,1.27.86,2.54,1.2,3.78A.52.52,0,0,0,399.62,241.32Z" style="fill:#ebebeb"></path><path d="M398.78,263.84a.49.49,0,0,0-.66.24l-.07.14a27.42,27.42,0,0,1-1.94,3.41.5.5,0,0,0,.14.69.49.49,0,0,0,.28.09.52.52,0,0,0,.42-.22,28.77,28.77,0,0,0,2-3.54l.07-.14A.52.52,0,0,0,398.78,263.84Z" style="fill:#ebebeb"></path><path d="M400.8,257.15a.5.5,0,0,0-.59.4,28.65,28.65,0,0,1-1,3.8.51.51,0,0,0,.31.64l.16,0a.5.5,0,0,0,.48-.34,28.85,28.85,0,0,0,1-3.94A.5.5,0,0,0,400.8,257.15Z" style="fill:#ebebeb"></path><path d="M401.71,250.65a.52.52,0,0,0-.52-.49.51.51,0,0,0-.49.52c0,.4,0,.8,0,1.19,0,.93,0,1.86-.12,2.75a.5.5,0,0,0,.46.54h0a.5.5,0,0,0,.5-.46c.08-.93.12-1.88.12-2.84C401.73,251.46,401.72,251.06,401.71,250.65Z" style="fill:#ebebeb"></path><path d="M389.36,274.72A38.89,38.89,0,0,1,386.1,277a.5.5,0,0,0-.17.69.51.51,0,0,0,.43.24.48.48,0,0,0,.26-.07c1.17-.72,2.3-1.49,3.35-2.29a.5.5,0,0,0-.61-.8Z" style="fill:#ebebeb"></path><path d="M375.89,201.71a.5.5,0,0,0-.71,0,.5.5,0,0,0,0,.71q1.37,1.49,2.67,3a.52.52,0,0,0,.38.17.54.54,0,0,0,.33-.12.5.5,0,0,0,0-.71C377.7,203.7,376.81,202.71,375.89,201.71Z" style="fill:#ebebeb"></path><path d="M377.14,281.15c-1.21.43-2.48.84-3.78,1.21a.51.51,0,0,0,.14,1l.14,0c1.32-.38,2.61-.8,3.84-1.24a.5.5,0,0,0-.34-.94Z" style="fill:#ebebeb"></path><path d="M383.51,278.4c-1.13.59-2.34,1.15-3.59,1.68a.49.49,0,0,0-.27.65.51.51,0,0,0,.46.31.48.48,0,0,0,.2,0c1.27-.53,2.51-1.11,3.66-1.71a.49.49,0,0,0,.22-.67A.51.51,0,0,0,383.51,278.4Z" style="fill:#ebebeb"></path><path d="M389.07,218.16a.51.51,0,0,0-.7-.13.5.5,0,0,0-.13.7c.76,1.12,1.5,2.24,2.18,3.33a.49.49,0,0,0,.69.16.49.49,0,0,0,.16-.69C390.58,220.43,389.84,219.3,389.07,218.16Z" style="fill:#ebebeb"></path><path d="M370.48,283.12c-1.25.31-2.56.59-3.89.84a.5.5,0,0,0,.09,1h.1c1.34-.26,2.67-.54,3.94-.85a.51.51,0,0,0,.37-.61A.52.52,0,0,0,370.48,283.12Z" style="fill:#ebebeb"></path><path d="M260.91,268.87l-3.76-1.37a.5.5,0,0,0-.35.94c1.26.47,2.52.92,3.77,1.37l.17,0a.48.48,0,0,0,.47-.33A.49.49,0,0,0,260.91,268.87Z" style="fill:#fafafa"></path><path d="M254.35,266.44c-1.25-.47-2.49-.95-3.74-1.44a.5.5,0,0,0-.36.94c1.25.49,2.49,1,3.74,1.44a.39.39,0,0,0,.18,0,.51.51,0,0,0,.18-1Z" style="fill:#fafafa"></path><path d="M315,283.16l-3.94-.67a.5.5,0,0,0-.59.4.51.51,0,0,0,.41.59c1.33.23,2.65.46,4,.67h.08a.5.5,0,0,0,.08-1Z" style="fill:#fafafa"></path><path d="M267.52,271.17l-3.78-1.3a.5.5,0,0,0-.64.31.51.51,0,0,0,.31.64l3.79,1.3.16,0a.5.5,0,0,0,.48-.34A.5.5,0,0,0,267.52,271.17Z" style="fill:#fafafa"></path><path d="M241.35,261.23c-1.22-.51-2.45-1-3.67-1.57a.52.52,0,0,0-.67.26.5.5,0,0,0,.27.66l3.68,1.58a.48.48,0,0,0,.2,0,.51.51,0,0,0,.46-.31A.5.5,0,0,0,241.35,261.23Z" style="fill:#fafafa"></path><path d="M234.93,258.45c-1.22-.53-2.43-1.08-3.65-1.64a.51.51,0,1,0-.42.92l3.66,1.64a.53.53,0,0,0,.2.05.51.51,0,0,0,.21-1Z" style="fill:#fafafa"></path><path d="M247.83,263.9l-3.71-1.51a.5.5,0,1,0-.38.93c1.24.51,2.48,1,3.71,1.51a.43.43,0,0,0,.19,0,.48.48,0,0,0,.46-.32A.49.49,0,0,0,247.83,263.9Z" style="fill:#fafafa"></path><path d="M228.56,255.56c-1.07-.49-2.14-1-3.2-1.5l-.42-.2a.5.5,0,1,0-.43.91l.41.19c1.08.51,2.15,1,3.22,1.51a.41.41,0,0,0,.21,0,.5.5,0,0,0,.21-1Z" style="fill:#fafafa"></path><path d="M301.21,280.54l-3.9-.87a.49.49,0,0,0-.6.37.51.51,0,0,0,.37.61l3.92.87.11,0a.51.51,0,0,0,.49-.4A.52.52,0,0,0,301.21,280.54Z" style="fill:#fafafa"></path><path d="M294.4,279c-1.29-.31-2.58-.63-3.88-1a.52.52,0,0,0-.62.36.52.52,0,0,0,.37.62c1.3.33,2.6.66,3.89,1h.12a.49.49,0,0,0,.48-.38A.51.51,0,0,0,294.4,279Z" style="fill:#fafafa"></path><path d="M308.07,281.94c-1.3-.25-2.61-.5-3.92-.78a.52.52,0,0,0-.6.4.51.51,0,0,0,.39.59l3.94.78H308a.5.5,0,0,0,.1-1Z" style="fill:#fafafa"></path><path d="M280.88,275.36,277,274.22a.48.48,0,0,0-.62.33.5.5,0,0,0,.33.63l3.84,1.14.14,0a.5.5,0,0,0,.15-1Z" style="fill:#fafafa"></path><path d="M287.61,277.24c-1.28-.34-2.56-.69-3.85-1.06a.51.51,0,0,0-.62.35.49.49,0,0,0,.35.62c1.29.36,2.58.72,3.87,1.06l.13,0a.5.5,0,0,0,.48-.37A.51.51,0,0,0,287.61,277.24Z" style="fill:#fafafa"></path><path d="M274.18,273.33c-1.27-.4-2.54-.8-3.81-1.22a.5.5,0,0,0-.63.32.49.49,0,0,0,.32.63c1.27.42,2.55.83,3.82,1.23l.15,0a.5.5,0,0,0,.15-1Z" style="fill:#fafafa"></path><path d="M303.09,312.44h0c-1.32,0-2.68-.07-4.06-.19a.51.51,0,0,1-.46-.55.52.52,0,0,1,.55-.45c1.35.11,2.69.18,4,.18a.51.51,0,0,1,0,1Zm3-.09a.51.51,0,0,1-.5-.47.5.5,0,0,1,.47-.54,35.11,35.11,0,0,0,3.94-.46.5.5,0,1,1,.17,1,37.08,37.08,0,0,1-4.05.48Zm-10-.44H296c-1.3-.19-2.64-.42-4-.7a.5.5,0,1,1,.2-1c1.33.27,2.65.5,3.93.68a.5.5,0,0,1-.06,1Zm17-.67a.51.51,0,0,1-.49-.38.5.5,0,0,1,.36-.61,32.39,32.39,0,0,0,3.75-1.27.49.49,0,0,1,.65.27.5.5,0,0,1-.27.66,32,32,0,0,1-3.87,1.31Zm-23.9-.69H289c-1.27-.32-2.58-.68-3.9-1.08a.5.5,0,0,1-.34-.62.5.5,0,0,1,.63-.34c1.3.39,2.6.75,3.86,1.06a.5.5,0,0,1-.13,1Zm30.43-1.91a.51.51,0,0,1-.44-.26.5.5,0,0,1,.2-.68,28,28,0,0,0,3.31-2.15.53.53,0,0,1,.74.07.46.46,0,0,1-.06.67l-.3-.4.24.45a27.89,27.89,0,0,1-3.45,2.24A.53.53,0,0,1,319.59,308.64Zm-37.18-.08a.45.45,0,0,1-.16,0c-1.25-.42-2.53-.88-3.81-1.37a.5.5,0,0,1,.36-.94c1.27.49,2.54.94,3.77,1.36a.51.51,0,0,1,.31.64A.49.49,0,0,1,282.41,308.56Zm-6.59-2.49a.71.71,0,0,1-.2,0c-1.22-.51-2.47-1.06-3.7-1.62a.49.49,0,0,1-.25-.66.49.49,0,0,1,.66-.25c1.23.56,2.46,1.1,3.68,1.6a.5.5,0,0,1,.27.66A.51.51,0,0,1,275.82,306.07Zm49.51-1.64a.5.5,0,0,1-.35-.86,28.59,28.59,0,0,0,2.65-2.94.49.49,0,0,1,.7-.08.5.5,0,0,1,.09.7,29.49,29.49,0,0,1-2.74,3A.52.52,0,0,1,325.33,304.43Zm-55.94-1.26a.44.44,0,0,1-.22-.05c-1.19-.57-2.4-1.18-3.61-1.81a.5.5,0,0,1,.46-.89c1.21.63,2.4,1.23,3.59,1.8a.5.5,0,0,1,.23.67A.48.48,0,0,1,269.39,303.17ZM263.12,300a.53.53,0,0,1-.24-.06c-1.16-.64-2.34-1.3-3.52-2a.5.5,0,0,1,.5-.87c1.18.68,2.34,1.33,3.5,2a.5.5,0,0,1,.21.68A.54.54,0,0,1,263.12,300Zm66.64-1a.54.54,0,0,1-.27-.07.51.51,0,0,1-.15-.7,35.92,35.92,0,0,0,1.9-3.47.5.5,0,1,1,.9.42,33.3,33.3,0,0,1-2,3.59A.48.48,0,0,1,329.76,299ZM257,296.45a.48.48,0,0,1-.26-.07c-1.14-.69-2.29-1.39-3.44-2.12a.51.51,0,0,1-.16-.69.5.5,0,0,1,.7-.16c1.14.72,2.28,1.43,3.42,2.11a.5.5,0,0,1,.17.68A.51.51,0,0,1,257,296.45Zm-6-3.74a.56.56,0,0,1-.27-.08c-1.12-.73-2.24-1.48-3.36-2.24a.5.5,0,0,1-.13-.7.49.49,0,0,1,.69-.13c1.12.76,2.24,1.5,3.35,2.22a.51.51,0,0,1-.28.93Zm81.83,0-.17,0a.52.52,0,0,1-.3-.65c.46-1.2.87-2.47,1.23-3.78a.5.5,0,1,1,1,.26,40,40,0,0,1-1.25,3.88A.49.49,0,0,1,332.86,292.66Zm-87.66-3.9a.52.52,0,0,1-.29-.09c-1.09-.77-2.19-1.55-3.29-2.35a.5.5,0,1,1,.59-.81c1.1.8,2.19,1.57,3.27,2.34a.5.5,0,0,1,.13.7A.54.54,0,0,1,245.2,288.76Zm89.6-2.87h-.1a.49.49,0,0,1-.39-.59c.26-1.26.48-2.58.66-3.93a.5.5,0,1,1,1,.13c-.19,1.37-.41,2.72-.68,4A.5.5,0,0,1,334.8,285.89Zm-95.31-1.26a.54.54,0,0,1-.3-.1c-1.07-.8-2.15-1.62-3.22-2.44a.51.51,0,0,1-.09-.71.5.5,0,0,1,.7-.09q1.6,1.24,3.21,2.43a.51.51,0,0,1,.1.7A.49.49,0,0,1,239.49,284.63Zm-5.59-4.3a.51.51,0,0,1-.31-.11c-1.05-.83-2.1-1.67-3.15-2.53a.49.49,0,0,1-.07-.7.51.51,0,0,1,.71-.08c1,.86,2.09,1.7,3.13,2.52a.51.51,0,0,1-.31.9Zm101.89-1.41h0a.5.5,0,0,1-.46-.54c.11-1.29.18-2.63.22-4a.49.49,0,0,1,.5-.48h0a.49.49,0,0,1,.49.51c0,1.38-.11,2.74-.22,4A.5.5,0,0,1,335.79,278.92Zm-107.36-3a.46.46,0,0,1-.32-.11c-1-.86-2.06-1.73-3.08-2.61a.5.5,0,1,1,.65-.76c1,.88,2,1.74,3.07,2.6a.5.5,0,0,1-.32.88Zm-5.36-4.58a.54.54,0,0,1-.33-.12c-1-.88-2-1.78-3-2.68a.5.5,0,1,1,.67-.75c1,.9,2,1.79,3,2.67a.5.5,0,0,1-.34.88Zm-5.24-4.71a.48.48,0,0,1-.34-.13c-1-.9-2-1.82-3-2.75a.5.5,0,1,1,.69-.73c1,.93,2,1.84,2.95,2.74a.51.51,0,0,1,0,.71A.5.5,0,0,1,217.83,266.59Zm-5.14-4.82a.52.52,0,0,1-.35-.14c-1-.93-1.93-1.86-2.89-2.81a.5.5,0,1,1,.7-.72c1,.95,1.93,1.88,2.89,2.81a.5.5,0,0,1-.35.86Zm-5-4.93a.51.51,0,0,1-.36-.15c-1-.95-1.89-1.9-2.83-2.87a.5.5,0,0,1,0-.71.5.5,0,0,1,.71,0L208,256a.5.5,0,0,1,0,.71A.5.5,0,0,1,207.66,256.84Zm-4.94-5a.48.48,0,0,1-.36-.16c-.92-1-1.85-1.94-2.77-2.92a.5.5,0,1,1,.73-.69c.92,1,1.84,2,2.77,2.92a.5.5,0,0,1,0,.71A.52.52,0,0,1,202.72,251.8Zm-4.82-5.14a.49.49,0,0,1-.37-.16c-.91-1-1.82-2-2.72-3a.5.5,0,1,1,.74-.67l2.71,3a.49.49,0,0,1-.36.84Zm-4.73-5.22a.52.52,0,0,1-.38-.17c-.89-1-1.78-2-2.66-3a.5.5,0,0,1,.76-.66c.88,1,1.76,2,2.65,3a.51.51,0,0,1-.37.84Zm-4.63-5.31a.5.5,0,0,1-.39-.18c-.87-1-1.73-2-2.6-3.08a.51.51,0,0,1,.06-.71.5.5,0,0,1,.71.07c.86,1,1.73,2.05,2.6,3.07a.49.49,0,0,1-.06.7A.45.45,0,0,1,188.54,236.13Zm-4.54-5.4a.5.5,0,0,1-.38-.19q-1.29-1.54-2.55-3.12a.5.5,0,1,1,.78-.63l2.54,3.12a.49.49,0,0,1-.07.7A.47.47,0,0,1,184,230.73Zm-4.43-5.48a.51.51,0,0,1-.39-.19c-.84-1.05-1.67-2.11-2.5-3.17a.51.51,0,1,1,.8-.62c.82,1.06,1.65,2.12,2.48,3.16a.5.5,0,0,1-.08.71A.51.51,0,0,1,179.57,225.25Zm-4.33-5.56a.5.5,0,0,1-.4-.19l-1.09-1.43-1.35-1.78a.52.52,0,0,1,.1-.71.5.5,0,0,1,.7.1l1.35,1.79,1.09,1.42a.51.51,0,0,1-.1.7A.49.49,0,0,1,175.24,219.69ZM171,214.06a.49.49,0,0,1-.4-.2c-.81-1.09-1.6-2.17-2.38-3.26a.49.49,0,0,1,.11-.7.51.51,0,0,1,.7.11c.78,1.09,1.57,2.17,2.37,3.25a.5.5,0,0,1-.4.8Zm-4.14-5.7a.52.52,0,0,1-.41-.22l-2.32-3.29a.51.51,0,0,1,.83-.58c.76,1.1,1.53,2.2,2.31,3.29a.51.51,0,0,1-.11.7A.47.47,0,0,1,166.86,208.36Zm-4-5.78a.52.52,0,0,1-.42-.22c-.76-1.11-1.51-2.23-2.26-3.34a.5.5,0,0,1,.84-.56q1.11,1.66,2.25,3.33a.5.5,0,0,1-.13.7A.47.47,0,0,1,162.83,202.58Zm-3.93-5.86a.52.52,0,0,1-.42-.22l-2.2-3.38a.51.51,0,0,1,.85-.55c.72,1.13,1.45,2.25,2.19,3.38a.5.5,0,0,1-.14.69A.48.48,0,0,1,158.9,196.72Zm-3.82-5.92a.49.49,0,0,1-.42-.23l-2.14-3.43a.5.5,0,0,1,.86-.52c.7,1.13,1.41,2.27,2.13,3.41a.49.49,0,0,1-.16.69A.53.53,0,0,1,155.08,190.8Zm-3.7-6a.49.49,0,0,1-.43-.24c-.7-1.15-1.39-2.31-2.07-3.46a.5.5,0,0,1,.87-.51c.67,1.15,1.36,2.3,2.06,3.45a.5.5,0,0,1-.17.69A.48.48,0,0,1,151.38,184.8Zm-3.59-6.06a.5.5,0,0,1-.43-.25c-.68-1.17-1.35-2.34-2-3.51a.5.5,0,0,1,.87-.49c.66,1.16,1.32,2.33,2,3.49a.51.51,0,0,1-.18.69A.45.45,0,0,1,147.79,178.74Zm-3.46-6.14a.51.51,0,0,1-.44-.26c-.65-1.18-1.3-2.37-1.93-3.55a.5.5,0,1,1,.89-.47c.63,1.18,1.27,2.35,1.92,3.53a.52.52,0,0,1-.2.69A.53.53,0,0,1,144.33,172.6ZM141,166.39a.5.5,0,0,1-.44-.27c-.63-1.2-1.24-2.4-1.85-3.59a.5.5,0,0,1,.22-.67.5.5,0,0,1,.68.22c.6,1.19,1.21,2.38,1.84,3.57a.51.51,0,0,1-.21.68A.53.53,0,0,1,141,166.39Zm-3.19-6.28a.48.48,0,0,1-.45-.28q-.9-1.83-1.77-3.63a.5.5,0,1,1,.91-.43c.57,1.2,1.16,2.4,1.76,3.61a.51.51,0,0,1-.23.68A.59.59,0,0,1,137.8,160.11Zm-3.05-6.36a.5.5,0,0,1-.46-.29c-.57-1.22-1.13-2.45-1.68-3.67a.5.5,0,0,1,.92-.41c.54,1.22,1.1,2.44,1.67,3.66a.5.5,0,0,1-.24.67A.52.52,0,0,1,134.75,153.75Zm-2.9-6.42a.51.51,0,0,1-.46-.31c-.54-1.24-1.07-2.48-1.58-3.71a.5.5,0,0,1,.92-.38c.52,1.22,1,2.46,1.58,3.69a.49.49,0,0,1-.26.66A.46.46,0,0,1,131.85,147.33Zm-2.73-6.5a.5.5,0,0,1-.46-.32c-.51-1.26-1-2.51-1.48-3.75a.5.5,0,0,1,.29-.65.49.49,0,0,1,.64.29c.48,1.24,1,2.48,1.48,3.74a.5.5,0,0,1-.28.65A.41.41,0,0,1,129.12,140.83Zm-2.54-6.57a.51.51,0,0,1-.47-.33c-.47-1.28-.93-2.54-1.37-3.8a.51.51,0,0,1,.31-.64.49.49,0,0,1,.64.31c.44,1.25.89,2.51,1.36,3.78a.49.49,0,0,1-.3.64A.33.33,0,0,1,126.58,134.26Zm-2.34-6.65a.51.51,0,0,1-.48-.35c-.43-1.29-.84-2.57-1.24-3.84a.5.5,0,0,1,1-.3c.39,1.27.81,2.54,1.23,3.83a.5.5,0,0,1-.31.63Zm-2.12-6.72a.5.5,0,0,1-.48-.36c-.39-1.31-.76-2.61-1.11-3.89a.51.51,0,0,1,.36-.62.5.5,0,0,1,.61.36c.35,1.27.71,2.56,1.1,3.86a.49.49,0,0,1-.34.62Zm-1.87-6.8a.5.5,0,0,1-.49-.38c-.33-1.32-.65-2.63-.94-3.93a.5.5,0,0,1,.37-.6.51.51,0,0,1,.61.38c.29,1.29.6,2.59.94,3.9a.51.51,0,0,1-.37.61A.25.25,0,0,1,120.25,114.09Zm-1.58-6.87a.49.49,0,0,1-.49-.4c-.28-1.34-.54-2.66-.77-4a.51.51,0,0,1,.41-.58.5.5,0,0,1,.58.41c.23,1.3.48,2.61.76,3.94a.49.49,0,0,1-.39.59Zm-1.26-6.93a.5.5,0,0,1-.49-.43c-.21-1.34-.39-2.68-.54-4a.49.49,0,0,1,.43-.55.51.51,0,0,1,.56.44c.16,1.3.34,2.64.54,4a.5.5,0,0,1-.42.57Zm-.85-7a.49.49,0,0,1-.5-.46c-.12-1.35-.22-2.71-.29-4a.51.51,0,0,1,.48-.53.49.49,0,0,1,.53.48c.06,1.31.16,2.65.28,4a.51.51,0,0,1-.46.55Zm-.38-7a.51.51,0,0,1-.51-.5c0-.45,0-.9,0-1.35,0-.91,0-1.81,0-2.7a.52.52,0,0,1,.52-.48.5.5,0,0,1,.48.52c0,.87,0,1.76,0,2.66,0,.45,0,.89,0,1.34a.51.51,0,0,1-.5.51Zm.2-7h0a.49.49,0,0,1-.46-.53c.1-1.38.25-2.74.43-4a.51.51,0,0,1,.57-.43.52.52,0,0,1,.43.57c-.18,1.28-.33,2.62-.43,4A.5.5,0,0,1,116.38,79.22Zm.93-7h-.1a.49.49,0,0,1-.39-.59c.27-1.35.59-2.68,1-3.95a.49.49,0,0,1,.62-.35.51.51,0,0,1,.34.62c-.35,1.25-.66,2.55-.93,3.88A.49.49,0,0,1,117.31,72.23Zm1.87-6.78a.47.47,0,0,1-.17,0,.51.51,0,0,1-.3-.65A37.36,37.36,0,0,1,120.3,61a.5.5,0,1,1,.9.44,34.67,34.67,0,0,0-1.55,3.66A.51.51,0,0,1,119.18,65.45Zm76.4-4a.54.54,0,0,1-.26-.07c-1.15-.7-2.31-1.38-3.46-2a.49.49,0,0,1-.18-.68.49.49,0,0,1,.68-.19c1.16.66,2.32,1.34,3.48,2a.49.49,0,0,1,.17.69A.51.51,0,0,1,195.58,61.47ZM122.2,59.1a.5.5,0,0,1-.26-.08.5.5,0,0,1-.17-.69A29.85,29.85,0,0,1,124.13,55a.49.49,0,0,1,.7-.07.5.5,0,0,1,.08.7,28.79,28.79,0,0,0-2.28,3.23A.51.51,0,0,1,122.2,59.1ZM189.48,58a.48.48,0,0,1-.24-.06c-1.19-.65-2.37-1.28-3.55-1.89a.5.5,0,0,1,.46-.89c1.18.61,2.37,1.24,3.57,1.9a.51.51,0,0,1,.2.68A.5.5,0,0,1,189.48,58Zm-6.26-3.24a.59.59,0,0,1-.22-.05q-1.83-.9-3.63-1.71a.49.49,0,0,1-.25-.66.49.49,0,0,1,.66-.25q1.82.81,3.66,1.71a.51.51,0,0,1-.22,1Zm-56.68-1.14a.47.47,0,0,1-.35-.15.5.5,0,0,1,0-.71,28.14,28.14,0,0,1,2.74-2.38l.38-.28a.5.5,0,0,1,.7.11.51.51,0,0,1-.11.7l-.36.27a27.24,27.24,0,0,0-2.64,2.29A.51.51,0,0,1,126.54,53.57Zm50.27-1.78a.45.45,0,0,1-.2,0c-1.24-.52-2.5-1-3.72-1.49a.5.5,0,0,1-.29-.65.5.5,0,0,1,.64-.29c1.24.47,2.51,1,3.76,1.5a.5.5,0,0,1,.27.66A.51.51,0,0,1,176.81,51.79Zm-44.68-2.48a.5.5,0,0,1-.43-.25.51.51,0,0,1,.18-.69,27.83,27.83,0,0,1,3.69-1.77.5.5,0,1,1,.37.93,29.16,29.16,0,0,0-3.56,1.71A.45.45,0,0,1,132.13,49.31Zm38.1,0a.51.51,0,0,1-.17,0c-1.28-.44-2.56-.85-3.81-1.22a.5.5,0,1,1,.28-1c1.27.37,2.56.79,3.86,1.23a.51.51,0,0,1,.31.64A.49.49,0,0,1,170.23,49.27Zm-6.75-2-.12,0c-1.31-.33-2.63-.63-3.9-.88a.5.5,0,0,1-.4-.59.51.51,0,0,1,.59-.4c1.3.26,2.63.56,3.95.9a.5.5,0,0,1,.37.61A.51.51,0,0,1,163.48,47.24Zm-24.87-.65a.49.49,0,0,1-.48-.36.5.5,0,0,1,.35-.62,33,33,0,0,1,4-.88.51.51,0,0,1,.58.42.5.5,0,0,1-.42.57,33.56,33.56,0,0,0-3.87.85A.32.32,0,0,1,138.61,46.59Zm18-.76h-.08c-1.35-.2-2.68-.35-4-.45a.5.5,0,0,1-.46-.54.49.49,0,0,1,.54-.46c1.3.1,2.66.25,4,.45a.5.5,0,0,1-.07,1Zm-11-.46a.5.5,0,0,1,0-1c1.11-.09,2.25-.13,3.4-.13h.67a.51.51,0,0,1,0,1h-.67c-1.13,0-2.24,0-3.32.13Z" style="fill:#ebebeb"></path></g></g><g id="freepik--Locators--inject-230"><g id="freepik--Pins--inject-230"><path id="freepik--Pin--inject-230" d="M273.72,182.41a3.46,3.46,0,0,0-4.3,2.35c-.92,3.15,1.53,7.1,1.53,7.1s4.2-2,5.12-5.16A3.45,3.45,0,0,0,273.72,182.41Zm-1.38,4.72a1.67,1.67,0,1,1,2.08-1.13A1.68,1.68,0,0,1,272.34,187.13Z" style="fill:#6E9DF5"></path><path id="freepik--pin--inject-230" d="M323.88,138.19a3.47,3.47,0,0,0-3.81,3.08c-.34,3.27,2.78,6.72,2.78,6.72s3.77-2.72,4.11-6A3.47,3.47,0,0,0,323.88,138.19Zm-.52,4.9a1.68,1.68,0,1,1,1.85-1.49A1.68,1.68,0,0,1,323.36,143.09Z" style="fill:#6E9DF5"></path><path id="freepik--pin--inject-230" d="M249.21,124.67a3.46,3.46,0,0,0-3.31,3.61c.13,3.28,3.72,6.24,3.72,6.24s3.33-3.25,3.2-6.53A3.47,3.47,0,0,0,249.21,124.67Zm.21,4.92a1.68,1.68,0,1,1,1.6-1.74A1.68,1.68,0,0,1,249.42,129.59Z" style="fill:#6E9DF5"></path><path id="freepik--pin--inject-230" d="M339.15,183a3.46,3.46,0,0,0-4.48,2c-1.18,3.06.93,7.21.93,7.21s4.35-1.65,5.53-4.72A3.45,3.45,0,0,0,339.15,183Zm-1.78,4.59a1.68,1.68,0,1,1,2.17-1A1.68,1.68,0,0,1,337.37,187.56Z" style="fill:#6E9DF5"></path><path id="freepik--pin--inject-230" d="M249.28,244.31a3.47,3.47,0,0,0-1.42,4.69c1.55,2.9,6.07,4,6.07,4s1.59-4.37,0-7.27A3.48,3.48,0,0,0,249.28,244.31Zm2.33,4.35a1.68,1.68,0,1,1,.68-2.27A1.68,1.68,0,0,1,251.61,248.66Z" style="fill:#6E9DF5"></path><path id="freepik--pin--inject-230" d="M140.85,130.1a3.46,3.46,0,0,0-2.78,4c.6,3.23,4.57,5.66,4.57,5.66s2.84-3.69,2.24-6.92A3.45,3.45,0,0,0,140.85,130.1Zm.89,4.84a1.68,1.68,0,0,1-.61-3.3,1.7,1.7,0,0,1,2,1.35A1.68,1.68,0,0,1,141.74,134.94Z" style="fill:#6E9DF5"></path><path id="freepik--pin--inject-230" d="M183.52,109a3.46,3.46,0,0,0-3.57,3.35c-.1,3.28,3.26,6.5,3.26,6.5s3.56-3,3.67-6.28A3.47,3.47,0,0,0,183.52,109Zm-.15,4.92a1.68,1.68,0,1,1,1.73-1.62A1.68,1.68,0,0,1,183.37,113.93Z" style="fill:#6E9DF5"></path><path id="freepik--pin--inject-230" d="M180,204.55a3.47,3.47,0,0,0-3,3.89c.44,3.26,4.28,5.88,4.28,5.88s3-3.54,2.58-6.8A3.46,3.46,0,0,0,180,204.55Zm.66,4.88a1.68,1.68,0,1,1,1.44-1.88A1.67,1.67,0,0,1,180.7,209.43Z" style="fill:#6E9DF5"></path></g></g><g id="freepik--paper-plane-2--inject-230"><g id="freepik--paper-plane--inject-230"><polygon points="345.14 154.16 385.81 133.82 402.01 140.99 345.14 154.16" style="fill:#6E9DF5"></polygon><polygon points="345.14 154.16 380.97 130.21 374.55 120.99 345.14 154.16" style="fill:#6E9DF5"></polygon><polygon points="380.97 130.21 380.29 136.58 345.14 154.16 380.97 130.21" style="fill:#6E9DF5"></polygon><polygon points="380.97 130.21 380.29 136.58 345.14 154.16 380.97 130.21" style="opacity:0.2"></polygon><path d="M386.62,129.81a.66.66,0,0,1-.47-.19.68.68,0,0,1,0-1,28.93,28.93,0,0,0,3.28-4.15.67.67,0,0,1,.94-.2.69.69,0,0,1,.2.94,30.47,30.47,0,0,1-3.44,4.35A.68.68,0,0,1,386.62,129.81Zm5.54-8.22a.72.72,0,0,1-.29-.06.68.68,0,0,1-.33-.9,32.29,32.29,0,0,0,1.8-5,.67.67,0,0,1,.83-.48.69.69,0,0,1,.48.83,33.6,33.6,0,0,1-1.88,5.21A.67.67,0,0,1,392.16,121.59Zm2.72-9.54h-.09a.68.68,0,0,1-.59-.76,34.92,34.92,0,0,0,.3-4.59V106a.68.68,0,0,1,.66-.69h0a.68.68,0,0,1,.68.67c0,.25,0,.5,0,.75a35.94,35.94,0,0,1-.31,4.77A.69.69,0,0,1,394.88,112.05Zm-.08-9.93a.68.68,0,0,1-.67-.58A36.16,36.16,0,0,0,393,96.33a.68.68,0,0,1,1.3-.38,37.61,37.61,0,0,1,1.18,5.39.67.67,0,0,1-.57.77Zm-2.7-9.56a.67.67,0,0,1-.62-.41A40.05,40.05,0,0,0,389,87.41a.68.68,0,0,1,1.16-.7,39.29,39.29,0,0,1,2.53,4.91.68.68,0,0,1-.36.89A.65.65,0,0,1,392.1,92.56Zm-5-8.56a.67.67,0,0,1-.54-.26,41.51,41.51,0,0,0-3.52-4,.68.68,0,0,1,1-1,45.68,45.68,0,0,1,3.63,4.15.68.68,0,0,1-.13,1A.64.64,0,0,1,387.07,84Zm-6.92-7.12a.69.69,0,0,1-.43-.16c-.83-.68-1.68-1.33-2.56-2-.57-.41-1.16-.81-1.76-1.21a.68.68,0,1,1,.74-1.13c.62.4,1.22.82,1.81,1.24.9.64,1.78,1.32,2.63,2a.68.68,0,0,1-.43,1.21Zm-8.26-5.55a.8.8,0,0,1-.33-.08c-1.52-.84-3.14-1.65-4.81-2.4a.68.68,0,0,1,.56-1.24c1.7.77,3.36,1.59,4.91,2.45a.68.68,0,0,1,.27.92A.7.7,0,0,1,371.89,71.33Zm-9-4.15a.69.69,0,0,1-.24-.05c-1.64-.62-3.36-1.21-5.09-1.75a.68.68,0,0,1,.39-1.3c1.77.55,3.51,1.15,5.18,1.78a.68.68,0,0,1-.24,1.32Zm-9.49-3-.17,0c-1.7-.44-3.48-.84-5.27-1.2a.68.68,0,0,1-.53-.8.67.67,0,0,1,.8-.53c1.81.36,3.61.77,5.34,1.21a.68.68,0,0,1,.49.83A.69.69,0,0,1,353.36,64.19Zm-9.76-2h-.11c-1.75-.27-3.55-.51-5.36-.7a.68.68,0,0,1,.15-1.35c1.83.19,3.65.43,5.42.71a.68.68,0,0,1-.1,1.35Zm-9.9-1.1h-.05c-1.79-.12-3.6-.2-5.4-.24a.68.68,0,0,1,0-1.36h0c1.82,0,3.65.12,5.46.24a.68.68,0,0,1,.63.73A.67.67,0,0,1,333.7,61.1Zm-15.39-.05a.68.68,0,0,1,0-1.36c1.8-.11,3.64-.18,5.46-.21h0a.68.68,0,0,1,.68.67.67.67,0,0,1-.67.69c-1.8,0-3.62.1-5.39.21Zm-10,1.73a.68.68,0,0,1-.23-1.34c1.76-.36,3.57-.69,5.37-1h0a.68.68,0,0,1,.77.57.67.67,0,0,1-.57.77c-1.78.28-3.56.61-5.31,1Z" style="fill:#e0e0e0"></path></g></g><g id="freepik--paper-plane-1--inject-230"><g id="freepik--paper-planes--inject-230"><g id="freepik--paper-plane--inject-230"><polygon points="109.13 202 147.41 179.37 120.84 208.92 109.13 202" style="fill:#6E9DF5"></polygon><polygon points="147.41 179.37 104.65 197.25 92.94 190.33 147.41 179.37" style="fill:#6E9DF5"></polygon><polygon points="104.65 197.25 107.25 208.26 109.13 202 147.41 179.37 104.65 197.25" style="fill:#6E9DF5"></polygon><polygon points="104.65 197.25 107.25 208.26 109.13 202 147.41 179.37 104.65 197.25" style="opacity:0.2"></polygon><polygon points="107.25 208.26 113.03 204.3 109.13 202 107.25 208.26" style="fill:#6E9DF5"></polygon><polygon points="109.13 202 113.03 204.3 112.11 204.94 109.13 202" style="opacity:0.2"></polygon><path d="M99.2,211a.69.69,0,0,1-.5-.23.78.78,0,0,1,0-1c.69-.7,1.39-1.36,2.08-2a.64.64,0,0,1,1,.11.77.77,0,0,1-.1,1q-1,.87-2,1.89A.61.61,0,0,1,99.2,211Z" style="fill:#e0e0e0"></path><path d="M149.94,295c-1.34,0-2.66,0-4-.08a.73.73,0,0,1,0-1.46c1.73.06,3.51.08,5.31.06h0a.71.71,0,0,1,.68.73.72.72,0,0,1-.67.74Zm5.85-.15a.7.7,0,0,1-.67-.7.71.71,0,0,1,.64-.77c1.74-.09,3.52-.22,5.31-.39a.71.71,0,0,1,.73.67.71.71,0,0,1-.61.79c-1.81.17-3.61.31-5.37.39Zm-14.24-.18h-.05c-1.79-.15-3.59-.34-5.35-.58a.73.73,0,0,1-.59-.82.71.71,0,0,1,.76-.64c1.73.24,3.51.43,5.28.57a.73.73,0,0,1,.63.79A.72.72,0,0,1,141.55,294.64Zm24-.71a.7.7,0,0,1-.68-.65.72.72,0,0,1,.6-.81c1.73-.22,3.5-.49,5.27-.78a.68.68,0,0,1,.77.61.73.73,0,0,1-.56.84c-1.79.3-3.58.56-5.32.79Zm-33.73-.57h-.12c-1.79-.34-3.57-.73-5.27-1.16a.74.74,0,0,1-.51-.88.69.69,0,0,1,.82-.55c1.68.42,3.43.81,5.2,1.14a.74.74,0,0,1,.55.85A.71.71,0,0,1,131.83,293.36ZM122.29,291a.58.58,0,0,1-.19,0c-1.74-.55-3.47-1.15-5.13-1.81a.75.75,0,0,1-.4-.94.66.66,0,0,1,.87-.44c1.63.65,3.32,1.24,5,1.78a.75.75,0,0,1,.47.91A.7.7,0,0,1,122.29,291Zm-9.22-3.58a.66.66,0,0,1-.27-.06c-1.67-.79-3.3-1.64-4.86-2.53a.77.77,0,0,1-.28-1,.66.66,0,0,1,.92-.3c1.52.88,3.13,1.71,4.76,2.48a.76.76,0,0,1,.35,1A.67.67,0,0,1,113.07,287.41Zm-8.67-4.91a.69.69,0,0,1-.36-.11c-1.55-1.05-3-2.17-4.44-3.33a.76.76,0,0,1-.13-1,.63.63,0,0,1,1-.14c1.37,1.13,2.83,2.22,4.34,3.24a.77.77,0,0,1,.22,1A.66.66,0,0,1,104.4,282.5Zm-7.82-6.36a.63.63,0,0,1-.45-.19,51.12,51.12,0,0,1-3.81-4.16.78.78,0,0,1,.05-1,.65.65,0,0,1,1,.07,50.12,50.12,0,0,0,3.71,4,.78.78,0,0,1,0,1A.67.67,0,0,1,96.58,276.14Zm-6.53-7.87a.65.65,0,0,1-.55-.3,42.54,42.54,0,0,1-2.85-5,.76.76,0,0,1,.29-1,.66.66,0,0,1,.91.32,42.26,42.26,0,0,0,2.75,4.82.77.77,0,0,1-.16,1A.63.63,0,0,1,90.05,268.27ZM85.46,259a.69.69,0,0,1-.64-.49,33.33,33.33,0,0,1-1.12-4.25c-.1-.49-.18-1-.26-1.46a.72.72,0,0,1,.56-.84.68.68,0,0,1,.78.6c.07.46.15.93.25,1.4A32.32,32.32,0,0,0,86.1,258a.75.75,0,0,1-.41.94A.64.64,0,0,1,85.46,259Zm-1.8-10.37a.7.7,0,0,1-.68-.71c0-.47,0-.94,0-1.4,0-1.47.08-3,.23-4.47a.7.7,0,0,1,.75-.65.72.72,0,0,1,.6.81,41.93,41.93,0,0,0-.23,4.31q0,.68,0,1.35a.72.72,0,0,1-.66.76Zm1-10.51-.16,0a.74.74,0,0,1-.51-.88,51.68,51.68,0,0,1,1.54-5.62.66.66,0,0,1,.87-.44.75.75,0,0,1,.4.94,50.11,50.11,0,0,0-1.48,5.45A.69.69,0,0,1,84.62,238.08Zm3.21-10a.79.79,0,0,1-.29-.06.76.76,0,0,1-.32-1c.76-1.74,1.61-3.48,2.54-5.16a.67.67,0,0,1,.94-.26.78.78,0,0,1,.23,1c-.91,1.64-1.75,3.34-2.48,5A.67.67,0,0,1,87.83,228.09Zm5-9.12a.63.63,0,0,1-.39-.13.77.77,0,0,1-.16-1,56.23,56.23,0,0,1,3.36-4.58.64.64,0,0,1,1-.07.78.78,0,0,1,.06,1c-1.14,1.4-2.25,2.91-3.28,4.46A.64.64,0,0,1,92.79,219Z" style="fill:#e0e0e0"></path></g></g></g><g id="freepik--speech-bubbles-2--inject-230"><g id="freepik--speech-bubble--inject-230"><path d="M436.32,171.8h-43.9a4,4,0,0,0-4,4v18.33a4,4,0,0,0,4,4h8.73c.22,3.05-.89,5.59-2.88,6.87,4.79-.13,8.79-3,9.74-6.87h28.31a4,4,0,0,0,4-4V175.8A4,4,0,0,0,436.32,171.8Z" style="fill:#f0f0f0"></path><path d="M397.49,184.82c-1.14,0-1.7.47-1.7.76,0,1.08.76,3.08,1.33,5.26a4.35,4.35,0,0,1,.13.93,6.35,6.35,0,0,1-.24,1.52l-.25,0c0-1.22-.85-3.31-1.52-5.48a5.28,5.28,0,0,1-.2-1.2,3.84,3.84,0,0,1,.27-1.37,2.74,2.74,0,0,1,.94-1.35,7.81,7.81,0,0,1-.16-1.35,2,2,0,0,1,.58-1.25,1.47,1.47,0,0,1,1-.42,2,2,0,0,1,1.31.45,6.59,6.59,0,0,1,1.59,2,1.85,1.85,0,0,1,.13.66,2.67,2.67,0,0,1-.35,1.11A18,18,0,0,0,397.49,184.82Zm2.08-1.19c-.59-.79-1.22-1.56-2.21-1.56a1.72,1.72,0,0,0-.63.12l0,.54a6.31,6.31,0,0,1-.26,1,4.79,4.79,0,0,1,1.41-.18,8.14,8.14,0,0,1,1.62.21Z" style="fill:#fff"></path><path d="M406,181.24l.74,1.4a3.93,3.93,0,0,1,.52,2v1.14a4.78,4.78,0,0,1-1.31,2.89,2.51,2.51,0,0,1-1.72.95,6.12,6.12,0,0,1-2.67-.81l.12-.35a3.45,3.45,0,0,0,1.15.19,4.5,4.5,0,0,0,3.65-2.81,1.12,1.12,0,0,0,.11-.45,1.78,1.78,0,0,0-.14-.55,16.54,16.54,0,0,0-1.25-2.29c.24-.45.48-.87.74-1.3Z" style="fill:#fff"></path><path d="M413.89,183.2a7.56,7.56,0,0,0-2.89-.58,1.65,1.65,0,0,0-1.31.52l.2.88-.29.82-.11,0-.6-1.64a2,2,0,0,1,2.25-1.87,9.79,9.79,0,0,1,3.41.9,4.62,4.62,0,0,0,1.77.33h.92v0l-.62,1.05a16.85,16.85,0,0,0-2.78.69c-2.27.85-3.84,2.08-3.84,3.46,0,2.16,2.28,3.41,5.18,3.41a17.46,17.46,0,0,0,2.67-.23l0,.1a12.18,12.18,0,0,1-1.69,1.24,11,11,0,0,1-2,.18c-2.74,0-5-1.33-5-4.21,0-2.48,2.09-4.44,4.67-5Z" style="fill:#fff"></path><path d="M424.1,187c-2.88,0-5.09-1.06-5.09-3.62a5.28,5.28,0,0,1,.61-2.51l.42.17a5.11,5.11,0,0,0-.3,1.58c0,2.1,2.07,3,4.67,3a15.64,15.64,0,0,0,3.56-.45,8.42,8.42,0,0,0,1.37-.43c.08,0,.1-.08.1-.11a8.64,8.64,0,0,0-1-2.57,7.92,7.92,0,0,1,.78-1.17h.06a7.42,7.42,0,0,1,1,3.17,3.07,3.07,0,0,1-.55,1.73A13.94,13.94,0,0,1,424.1,187Zm.37,1.86a9,9,0,0,1,1.24,1.11,4.36,4.36,0,0,1-.86,1c-.41-.39-.81-.72-1.23-1.07C423.91,189.56,424.19,189.2,424.47,188.88Z" style="fill:#fff"></path><path d="M432.26,186.78a13,13,0,0,0,.12-2.08v-1c0-1.9-.21-4.66-.38-6.46a9.83,9.83,0,0,1,1-1.1l.09,0c.22,2.26.27,4.89.27,7.31a17.15,17.15,0,0,1-.07,1.72,2.67,2.67,0,0,1-.91,1.67Z" style="fill:#fff"></path></g><g id="freepik--speech-bubble--inject-230"><path d="M62.29,135.21h43.9a4,4,0,0,1,4,4v18.32a4,4,0,0,1-4,4H97.46c-.22,3,.89,5.59,2.88,6.86-4.79-.13-8.79-3-9.74-6.86H62.29a4,4,0,0,1-4-4V139.22A4,4,0,0,1,62.29,135.21Z" style="fill:#f0f0f0"></path><path d="M75.67,141.82a.51.51,0,0,1,.5.5v12a.49.49,0,0,1-.15.36.47.47,0,0,1-.35.14h-1.5a.48.48,0,0,1-.36-.14.52.52,0,0,1-.14-.36V149.4h-5.6v4.88a.49.49,0,0,1-.15.36.45.45,0,0,1-.35.14h-1.5a.51.51,0,0,1-.35-.13.5.5,0,0,1-.15-.37v-12a.51.51,0,0,1,.5-.5h1.5a.45.45,0,0,1,.35.15.49.49,0,0,1,.15.35v4.76h5.6v-4.76a.52.52,0,0,1,.14-.35.49.49,0,0,1,.36-.15Z" style="fill:#fff"></path><path d="M83.13,145a5.11,5.11,0,0,1,1.84.31,4.39,4.39,0,0,1,1.43.87,4.52,4.52,0,0,1,1,1.3,4.31,4.31,0,0,1,.42,1.59c0,.11,0,.26,0,.43v1c0,.16,0,.3,0,.41a4.57,4.57,0,0,1-.43,1.6,4,4,0,0,1-.95,1.28,4.39,4.39,0,0,1-1.43.87,5.62,5.62,0,0,1-3.68,0,4.39,4.39,0,0,1-1.43-.87,4,4,0,0,1-1-1.28,4.57,4.57,0,0,1-.43-1.6c0-.11,0-.25,0-.41s0-.34,0-.51,0-.35,0-.52,0-.32,0-.43a4.31,4.31,0,0,1,.42-1.59,4.52,4.52,0,0,1,1-1.3,4.39,4.39,0,0,1,1.43-.87A5.11,5.11,0,0,1,83.13,145Zm2.24,4.17a2.53,2.53,0,0,0-.27-1,1.82,1.82,0,0,0-.53-.6,1.73,1.73,0,0,0-.68-.3,3.25,3.25,0,0,0-1.52,0,1.77,1.77,0,0,0-.69.3,1.8,1.8,0,0,0-.52.6,2.53,2.53,0,0,0-.27,1c0,.1,0,.22,0,.37s0,.3,0,.46,0,.32,0,.47,0,.28,0,.36a2.53,2.53,0,0,0,.27,1,1.8,1.8,0,0,0,.52.6,1.77,1.77,0,0,0,.69.3,3.25,3.25,0,0,0,1.52,0,1.73,1.73,0,0,0,.68-.3,1.82,1.82,0,0,0,.53-.6,2.53,2.53,0,0,0,.27-1,2.93,2.93,0,0,0,0-.36v-.93A3.57,3.57,0,0,0,85.37,149.14Z" style="fill:#fff"></path><path d="M92.31,154.28a.48.48,0,0,1-.5.5h-1.4a.45.45,0,0,1-.35-.14.49.49,0,0,1-.15-.36V142.14a.49.49,0,0,1,.15-.36.48.48,0,0,1,.35-.14h1.4a.52.52,0,0,1,.36.14.48.48,0,0,1,.14.36Z" style="fill:#fff"></path><path d="M94.87,147.53a2.6,2.6,0,0,1,.34-.84,3.43,3.43,0,0,1,.76-.83,4.19,4.19,0,0,1,1.21-.64,4.85,4.85,0,0,1,1.65-.25,5.39,5.39,0,0,1,1.71.25,3.75,3.75,0,0,1,1.3.73,3.2,3.2,0,0,1,.85,1.21,4.62,4.62,0,0,1,.29,1.68v5.44a.49.49,0,0,1-.15.36.46.46,0,0,1-.35.14h-1.41a.47.47,0,0,1-.35-.14.49.49,0,0,1-.15-.36v-.61a3,3,0,0,1-1.12.92,4,4,0,0,1-1.86.38,4.46,4.46,0,0,1-1.42-.21,3,3,0,0,1-1.06-.61,2.73,2.73,0,0,1-.66-.91,2.93,2.93,0,0,1-.23-1.16,2.4,2.4,0,0,1,.91-2,5.2,5.2,0,0,1,2.43-1l3-.52a1.14,1.14,0,0,0-.5-1.07,2.26,2.26,0,0,0-1.24-.32,1.71,1.71,0,0,0-.72.13,2.67,2.67,0,0,0-.5.35,1.18,1.18,0,0,1-.3.21,1.06,1.06,0,0,1-.31.05H95.28a.45.45,0,0,1-.32-.11A.3.3,0,0,1,94.87,147.53ZM98,152.75a3.21,3.21,0,0,0,1.12-.18,2.47,2.47,0,0,0,.83-.47,2,2,0,0,0,.5-.67,1.82,1.82,0,0,0,.16-.76v-.18l-2.51.44a2.83,2.83,0,0,0-1.1.38.81.81,0,0,0-.33.68.59.59,0,0,0,.4.57A2.06,2.06,0,0,0,98,152.75Z" style="fill:#fff"></path></g><g id="freepik--speech-bubble--inject-230"><path d="M81.15,249.93h43.9a4,4,0,0,1,4,4v14a4,4,0,0,1-4,4h-8.73c-.22,3.05.89,5.6,2.88,6.87-4.78-.13-8.79-3-9.74-6.87H81.15a4,4,0,0,1-4-4v-14A4,4,0,0,1,81.15,249.93Z" style="fill:#f0f0f0"></path><path d="M93.26,254.82a.42.42,0,0,1,.31.13.45.45,0,0,1,.14.32V266a.43.43,0,0,1-.14.32.42.42,0,0,1-.31.13H91.91a.44.44,0,0,1-.32-.13.42.42,0,0,1-.13-.32v-4.39h-5V266a.43.43,0,0,1-.14.32.4.4,0,0,1-.31.13H84.64a.43.43,0,0,1-.31-.12.42.42,0,0,1-.14-.33V255.27a.45.45,0,0,1,.14-.32.4.4,0,0,1,.31-.13H86a.4.4,0,0,1,.31.13.45.45,0,0,1,.14.32v4.27h5v-4.27a.44.44,0,0,1,.45-.45Z" style="fill:#fff"></path><path d="M96.15,259.94a2.54,2.54,0,0,1,.31-.75,2.92,2.92,0,0,1,.68-.74,3.7,3.7,0,0,1,1.08-.58,4.54,4.54,0,0,1,1.49-.22,4.83,4.83,0,0,1,1.53.22,3.19,3.19,0,0,1,1.17.66,2.86,2.86,0,0,1,.76,1.09,3.93,3.93,0,0,1,.27,1.5V266a.43.43,0,0,1-.14.32.4.4,0,0,1-.31.13h-1.27a.42.42,0,0,1-.31-.13.43.43,0,0,1-.14-.32v-.54a2.78,2.78,0,0,1-1,.82,3.6,3.6,0,0,1-1.67.34,3.87,3.87,0,0,1-1.28-.19,2.66,2.66,0,0,1-.95-.54,2.42,2.42,0,0,1-.59-.83,2.51,2.51,0,0,1-.21-1,2.16,2.16,0,0,1,.81-1.79,4.72,4.72,0,0,1,2.18-.88l2.71-.47a1.05,1.05,0,0,0-.44-1,2.07,2.07,0,0,0-1.12-.29,1.45,1.45,0,0,0-.65.12,2.08,2.08,0,0,0-.45.32,1.14,1.14,0,0,1-.27.18.82.82,0,0,1-.28.05H96.52a.43.43,0,0,1-.29-.1A.29.29,0,0,1,96.15,259.94Zm2.78,4.69a3.15,3.15,0,0,0,1-.15,2.33,2.33,0,0,0,.74-.43,1.79,1.79,0,0,0,.44-.6,1.64,1.64,0,0,0,.15-.68v-.17L99,263a2.55,2.55,0,0,0-1,.34.73.73,0,0,0-.3.61.55.55,0,0,0,.36.52A2,2,0,0,0,98.93,264.63Z" style="fill:#fff"></path><path d="M107.81,266a.42.42,0,0,1-.13.32.44.44,0,0,1-.32.13H106.1a.44.44,0,0,1-.32-.13.42.42,0,0,1-.13-.32V255.1a.42.42,0,0,1,.13-.31.45.45,0,0,1,.32-.14h1.26a.45.45,0,0,1,.32.14.42.42,0,0,1,.13.31Z" style="fill:#fff"></path><path d="M112.27,266a.46.46,0,0,1-.13.32.44.44,0,0,1-.32.13h-1.26a.44.44,0,0,1-.45-.45V255.1a.42.42,0,0,1,.13-.31.43.43,0,0,1,.32-.14h1.26a.45.45,0,0,1,.32.14.46.46,0,0,1,.13.31Z" style="fill:#fff"></path><path d="M118.37,257.65a4.59,4.59,0,0,1,1.66.28,4,4,0,0,1,1.28.78,3.7,3.7,0,0,1,.86,1.17,4.51,4.51,0,0,1,.4,1.81v.92a3.79,3.79,0,0,1,0,.38,4.32,4.32,0,0,1-.38,1.43,3.62,3.62,0,0,1-.86,1.15,4,4,0,0,1-1.28.78,4.59,4.59,0,0,1-1.66.28,4.53,4.53,0,0,1-1.65-.28,4,4,0,0,1-1.28-.78,3.62,3.62,0,0,1-.86-1.15,4.09,4.09,0,0,1-.38-1.43c0-.1,0-.23,0-.38v-.92c0-.16,0-.28,0-.38a3.83,3.83,0,0,1,.37-1.43,3.89,3.89,0,0,1,.87-1.17,4,4,0,0,1,1.28-.78A4.53,4.53,0,0,1,118.37,257.65Zm2,3.74a2.5,2.5,0,0,0-.24-.86,1.79,1.79,0,0,0-.48-.54,1.75,1.75,0,0,0-.61-.27,3.17,3.17,0,0,0-.69-.08,3.08,3.08,0,0,0-.68.08,1.75,1.75,0,0,0-.61.27,1.79,1.79,0,0,0-.48.54,2.13,2.13,0,0,0-.24.86,2.92,2.92,0,0,0,0,.33c0,.14,0,.27,0,.42s0,.28,0,.42a2.63,2.63,0,0,0,0,.33,2,2,0,0,0,.24.85,1.58,1.58,0,0,0,.48.54,1.61,1.61,0,0,0,.61.28,3.08,3.08,0,0,0,.68.07,3.17,3.17,0,0,0,.69-.07,1.61,1.61,0,0,0,.61-.28,1.58,1.58,0,0,0,.48-.54,2.38,2.38,0,0,0,.24-.85,3,3,0,0,0,0-.33v-.84A3.22,3.22,0,0,0,120.39,261.39Z" style="fill:#fff"></path></g><g id="freepik--speech-bubble--inject-230"><path d="M433.42,52.71H350.69a4,4,0,0,0-4,4V75a4,4,0,0,0,4,4h8.73c.22,3-.88,5.59-2.87,6.87,4.78-.13,8.79-3,9.73-6.87h67.14a4,4,0,0,0,4-4V56.71A4,4,0,0,0,433.42,52.71Z" style="fill:#f0f0f0"></path><path d="M361.17,63.85A3.71,3.71,0,0,1,360,66.63a4.11,4.11,0,0,1-3,1.12,4.19,4.19,0,0,1-3.05-1.1,3.8,3.8,0,0,1-1.12-2.85A3.65,3.65,0,0,1,354,61.06,4.2,4.2,0,0,1,357,60a4.14,4.14,0,0,1,3,1.12A3.74,3.74,0,0,1,361.17,63.85ZM357,61.19a2.88,2.88,0,0,0-2,.78,2.45,2.45,0,0,0-.84,1.86,2.43,2.43,0,0,0,.85,1.85,3.06,3.06,0,0,0,4.07,0,2.48,2.48,0,0,0,.83-1.86A2.45,2.45,0,0,0,359,62,2.92,2.92,0,0,0,357,61.19Zm7.13,12.5h-9.82V68.6h1.31v3.77h8.51Zm2.64-8.54h-2.65v5h-1.26V58.9h1.26v5h2.65Z" style="fill:#fff"></path><path d="M371,60.21V65.9a59,59,0,0,0,6.87-.37V66.8a64.61,64.61,0,0,1-8.17.48V60.21ZM383,71.1a2.41,2.41,0,0,1-1.57,2.19,9.13,9.13,0,0,1-4.05.78,9.31,9.31,0,0,1-4.14-.78,2.42,2.42,0,0,1-1.56-2.2,2.49,2.49,0,0,1,1.67-2.2,9.05,9.05,0,0,1,4-.82,8.86,8.86,0,0,1,4,.8A2.46,2.46,0,0,1,383,71.1Zm-1.39,0c0-.47-.41-.87-1.23-1.21a7.83,7.83,0,0,0-3-.5,9.19,9.19,0,0,0-3,.45c-.87.3-1.3.72-1.3,1.25s.45.86,1.36,1.2a8.13,8.13,0,0,0,2.95.52,7.87,7.87,0,0,0,3-.51C381.24,72,381.65,71.57,381.65,71.1ZM383,67.75H381.7V64.58h-3.64V63.29h3.64V62.06h-3.64v-1.3h3.64V58.9H383Z" style="fill:#fff"></path><path d="M395.31,64.53h-9.22V63.15h9.22Zm-1.1,4.22a3.11,3.11,0,0,1-.95,2.31,3.47,3.47,0,0,1-2.5.92,3.43,3.43,0,0,1-2.52-.91,3,3,0,0,1-.93-2.25,3.17,3.17,0,0,1,.93-2.32,3.3,3.3,0,0,1,2.46-1,3.51,3.51,0,0,1,2.57.93A3.06,3.06,0,0,1,394.21,68.75Zm-1.12-6.86h-4.64V60.53h4.64Zm-.15,6.86a1.82,1.82,0,0,0-.63-1.38,2.16,2.16,0,0,0-1.52-.57,2.19,2.19,0,0,0-1.52.57,1.8,1.8,0,0,0,0,2.74,2.12,2.12,0,0,0,1.52.58,2.16,2.16,0,0,0,1.52-.58A1.77,1.77,0,0,0,392.94,68.75Zm7.19-1.6h-2.65v6.94h-1.27V58.9h1.27v7h2.65Z" style="fill:#fff"></path><path d="M409.9,71.44a12.54,12.54,0,0,1-3.31-5.14A14.86,14.86,0,0,1,403,71.94a3.22,3.22,0,0,0-1-1.2,9.37,9.37,0,0,0,2.83-3.82,11.12,11.12,0,0,0,1.13-4.48V61.08a5.57,5.57,0,0,0-.06-.89l1.81.24a5.28,5.28,0,0,0-.43,1.75c0,.59-.05,1.21-.05,1.85a10.13,10.13,0,0,0,1.05,2.7,9.85,9.85,0,0,0,2.68,3.49A2.88,2.88,0,0,0,409.9,71.44ZM412,73V65.83h-3.24V64.55H412V59.16h1.28V73Zm3.1,1.08V58.88h1.27V74.07Z" style="fill:#fff"></path><path d="M433.52,72.87H418.91V71.55h4.22v-3h1.29v3h3.65v-3h1.27v3h4.18Zm-1.63-8.74a3.34,3.34,0,0,1-1.62,2.76,6.8,6.8,0,0,1-4,1.16,7,7,0,0,1-4.1-1.11,3.21,3.21,0,0,1,.08-5.57,7.55,7.55,0,0,1,8,0A3.36,3.36,0,0,1,431.89,64.13Zm-1.3,0a2.23,2.23,0,0,0-1.29-1.87,6.41,6.41,0,0,0-6.13,0,2,2,0,0,0,0,3.74,6.41,6.41,0,0,0,6.13,0A2.22,2.22,0,0,0,430.59,64.13Z" style="fill:#fff"></path></g></g><g id="freepik--speech-bubbles-1--inject-230"><g id="freepik--speech-bubble--inject-230"><path d="M82.39,52.46h62.72a4.67,4.67,0,0,1,4.67,4.67V78.51a4.67,4.67,0,0,1-4.67,4.67H134.93c-.26,3.56,1,6.53,3.35,8-5.58-.16-10.25-3.46-11.36-8H82.39a4.67,4.67,0,0,1-4.67-4.67V57.13A4.67,4.67,0,0,1,82.39,52.46Z" style="fill:#fafafa"></path><path d="M138.27,91.63c-5.64-.16-10.39-3.44-11.68-8H82.39a5.11,5.11,0,0,1-5.1-5.1V57.13a5.11,5.11,0,0,1,5.1-5.1h62.72a5.11,5.11,0,0,1,5.1,5.1V78.51a5.11,5.11,0,0,1-5.1,5.1h-9.78c-.12,3.18,1,5.86,3.18,7.22a.44.44,0,0,1,.18.49.43.43,0,0,1-.41.31ZM82.39,52.89a4.24,4.24,0,0,0-4.24,4.24V78.51a4.24,4.24,0,0,0,4.24,4.24h44.53a.44.44,0,0,1,.42.33c1,4,4.82,7,9.59,7.58a9.41,9.41,0,0,1-2.43-7.51.43.43,0,0,1,.43-.4h10.18a4.24,4.24,0,0,0,4.24-4.24V57.13a4.24,4.24,0,0,0-4.24-4.24Z" style="fill:#455a64"></path><path d="M102.11,61.43a.52.52,0,0,1,.37.16.49.49,0,0,1,.16.37V74.63a.51.51,0,0,1-.16.38.51.51,0,0,1-.37.15h-1.59a.51.51,0,0,1-.37-.15.51.51,0,0,1-.16-.38V69.46H94.07v5.17a.51.51,0,0,1-.16.38.51.51,0,0,1-.37.15H92a.49.49,0,0,1-.37-.14.5.5,0,0,1-.16-.39V62a.49.49,0,0,1,.16-.37.51.51,0,0,1,.37-.16h1.59a.52.52,0,0,1,.37.16.49.49,0,0,1,.16.37v5H100V62a.49.49,0,0,1,.16-.37.52.52,0,0,1,.37-.16Z" style="fill:#6E9DF5"></path><path d="M105,70.06a6.16,6.16,0,0,1,.34-2.07,4.88,4.88,0,0,1,1-1.68,4.39,4.39,0,0,1,1.52-1.13,4.6,4.6,0,0,1,2-.41,4.65,4.65,0,0,1,4.48,3.07,5.34,5.34,0,0,1,.34,1.91v.88a.51.51,0,0,1-.53.53h-6.55a1.6,1.6,0,0,0,.19.8,1.74,1.74,0,0,0,.5.58,2.35,2.35,0,0,0,.73.35,2.94,2.94,0,0,0,.84.12,3.52,3.52,0,0,0,1-.13,2.32,2.32,0,0,0,.65-.32,1.71,1.71,0,0,1,.35-.22.92.92,0,0,1,.37-.06h1.57a.52.52,0,0,1,.38.16.44.44,0,0,1,.15.37,1.59,1.59,0,0,1-.3.71,3.63,3.63,0,0,1-.86.84,5.72,5.72,0,0,1-1.4.71,5.94,5.94,0,0,1-1.93.29,5.08,5.08,0,0,1-2-.38,4.28,4.28,0,0,1-1.52-1.09,4.79,4.79,0,0,1-1-1.68A6.38,6.38,0,0,1,105,70.06Zm4.81-2.94a2.55,2.55,0,0,0-1,.17,2,2,0,0,0-.68.43,2,2,0,0,0-.42.59,2.2,2.2,0,0,0-.19.62H112a3.72,3.72,0,0,0-.15-.62,1.62,1.62,0,0,0-.35-.59,1.8,1.8,0,0,0-.65-.43A2.73,2.73,0,0,0,109.82,67.12Z" style="fill:#6E9DF5"></path><path d="M119.33,74.63a.51.51,0,0,1-.53.53h-1.49a.51.51,0,0,1-.37-.15.51.51,0,0,1-.16-.38V61.77a.51.51,0,0,1,.16-.38.51.51,0,0,1,.37-.15h1.49a.51.51,0,0,1,.53.53Z" style="fill:#6E9DF5"></path><path d="M124.59,74.63a.51.51,0,0,1-.16.38.51.51,0,0,1-.37.15h-1.49a.5.5,0,0,1-.37-.15.51.51,0,0,1-.16-.38V61.77a.51.51,0,0,1,.16-.38.5.5,0,0,1,.37-.15h1.49a.51.51,0,0,1,.37.15.51.51,0,0,1,.16.38Z" style="fill:#6E9DF5"></path><path d="M131.79,64.77a5.46,5.46,0,0,1,2,.33,4.6,4.6,0,0,1,1.51.92,4.46,4.46,0,0,1,1,1.38,4.36,4.36,0,0,1,.44,1.68,3,3,0,0,1,0,.45v1.09a2.76,2.76,0,0,1,0,.44,4.75,4.75,0,0,1-.45,1.69,4.24,4.24,0,0,1-1,1.36,4.78,4.78,0,0,1-1.51.92,5.93,5.93,0,0,1-3.9,0,4.67,4.67,0,0,1-1.51-.92,4.1,4.1,0,0,1-1-1.36,5,5,0,0,1-.46-1.69c0-.11,0-.26,0-.44s0-.35,0-.54,0-.36,0-.55,0-.33,0-.45a4.37,4.37,0,0,1,.45-1.68,4.53,4.53,0,0,1,2.53-2.3A5.46,5.46,0,0,1,131.79,64.77Zm2.37,4.41a2.62,2.62,0,0,0-.28-1,2,2,0,0,0-.56-.64,2.17,2.17,0,0,0-.73-.32,3.57,3.57,0,0,0-.8-.09,3.66,3.66,0,0,0-.81.09,2.12,2.12,0,0,0-.72.32,2,2,0,0,0-.56.64,2.61,2.61,0,0,0-.29,1c0,.11,0,.24,0,.39s0,.32,0,.49,0,.34,0,.5a3.53,3.53,0,0,0,0,.39,2.61,2.61,0,0,0,.29,1,1.82,1.82,0,0,0,.56.63,2,2,0,0,0,.72.33,3.66,3.66,0,0,0,.81.09,3.57,3.57,0,0,0,.8-.09,2,2,0,0,0,.73-.33,1.82,1.82,0,0,0,.56-.63,2.62,2.62,0,0,0,.28-1,2.07,2.07,0,0,0,0-.39v-1A2.3,2.3,0,0,0,134.16,69.18Z" style="fill:#6E9DF5"></path></g><g id="freepik--speech-bubble--inject-230"><path d="M416.27,299H358.35a3.74,3.74,0,0,1-3.74-3.74V267.67a3.74,3.74,0,0,1,3.74-3.74h8.17c.21-2.85-.83-5.23-2.69-6.42,4.47.12,8.22,2.77,9.11,6.42h43.33a3.73,3.73,0,0,1,3.74,3.74v27.54A3.73,3.73,0,0,1,416.27,299Z" style="fill:#fafafa"></path><path d="M363.84,257.08c4.54.12,8.36,2.74,9.43,6.42h43a4.17,4.17,0,0,1,4.17,4.17v27.54a4.17,4.17,0,0,1-4.17,4.17H358.35a4.17,4.17,0,0,1-4.17-4.17V267.67a4.17,4.17,0,0,1,4.17-4.17h7.76a6.22,6.22,0,0,0-2.51-5.63.44.44,0,0,1-.18-.49.43.43,0,0,1,.41-.3Zm52.43,41.44a3.31,3.31,0,0,0,3.31-3.31V267.67a3.31,3.31,0,0,0-3.31-3.31H372.94a.43.43,0,0,1-.42-.33c-.75-3.1-3.7-5.44-7.37-6A7.77,7.77,0,0,1,367,264a.44.44,0,0,1-.43.4h-8.17a3.31,3.31,0,0,0-3.31,3.31v27.54a3.31,3.31,0,0,0,3.31,3.31Z" style="fill:#455a64"></path><path d="M371.27,270.4a34.5,34.5,0,0,1-1.21,3.64l-.85,2.23v15.44h-1.95V279.12a9.49,9.49,0,0,1-2,2.46l-1.83-.93q3.85-3.25,6-10.93Zm14.22,3.4a25.81,25.81,0,0,1-1.72,5.46l-1.7-.67a27.73,27.73,0,0,0,1.05-2.94h-3.89v13.43a2.25,2.25,0,0,1-.43,1.27,2.53,2.53,0,0,1-.9.89,3.88,3.88,0,0,1-1.62.25c-.37,0-.89,0-1.56-.07l-.58-1.78h2.25a.81.81,0,0,0,.92-.91V275.65h-2.85a17.4,17.4,0,0,1-2.89,4.75l-1.92-.7a18.79,18.79,0,0,0,4.32-9.95l1.88.41a23.55,23.55,0,0,1-.77,3.64Zm-9.34,6.43a13.69,13.69,0,0,1-4.79,7.11l-1.5-1.24a12.69,12.69,0,0,0,4.6-6.67Zm10,6.53-1.71,1a16.11,16.11,0,0,0-4.27-7.09l1.6-1A16.81,16.81,0,0,1,386.13,286.76Z" style="fill:#6E9DF5"></path><path d="M399.05,287l-1.21,1.46c-1.38-1.08-2.29-1.76-2.72-2a18.1,18.1,0,0,1-5.26,5.1L388.57,290c2.66-1.82,4.32-3.35,5-4.61a15.08,15.08,0,0,0-3.47-1.65,41.74,41.74,0,0,0,2.12-7.35h-2.68v-1.77h3q.56-3,.78-4.56l1.87.49a30.82,30.82,0,0,1-.78,4.07h4a27.68,27.68,0,0,1-2.4,10.07C397.14,285.5,398.15,286.28,399.05,287Zm-2.64-10.62h-2.29c-.53,2.25-1.11,4.36-1.76,6.34a12.67,12.67,0,0,1,2.13,1A19.41,19.41,0,0,0,396.41,276.42Zm14.22,4.9h-5.84v7.89a2.09,2.09,0,0,1-.66,1.61,2.34,2.34,0,0,1-1.68.62H400l-.77-2c1,.07,1.88.11,2.56.11a1.71,1.71,0,0,0,.9-.15.68.68,0,0,0,.2-.56v-7.53H398v-1.77h4.88v-2.49a22.29,22.29,0,0,0,3.54-4.37h-8v-1.78h10.23v1.68a21.09,21.09,0,0,1-3.82,5.1v1.86h5.84Z" style="fill:#6E9DF5"></path></g></g></svg>